%TF.GenerationSoftware,KiCad,Pcbnew,7.0.9*%
%TF.CreationDate,2023-11-22T20:22:54-05:00*%
%TF.ProjectId,tick-circuit,7469636b-2d63-4697-9263-7569742e6b69,rev?*%
%TF.SameCoordinates,Original*%
%TF.FileFunction,Soldermask,Bot*%
%TF.FilePolarity,Negative*%
%FSLAX46Y46*%
G04 Gerber Fmt 4.6, Leading zero omitted, Abs format (unit mm)*
G04 Created by KiCad (PCBNEW 7.0.9) date 2023-11-22 20:22:54*
%MOMM*%
%LPD*%
G01*
G04 APERTURE LIST*
%ADD10R,1.350000X1.350000*%
%ADD11C,1.600000*%
%ADD12O,1.600000X1.600000*%
%ADD13R,1.600000X1.600000*%
%ADD14C,3.200000*%
%ADD15C,1.500000*%
%ADD16R,3.000000X3.000000*%
%ADD17C,3.000000*%
G04 APERTURE END LIST*
D10*
%TO.C,J2*%
X50800000Y-35560000D03*
%TD*%
D11*
%TO.C,R2*%
X31750000Y-15240000D03*
D12*
X39370000Y-15240000D03*
%TD*%
D11*
%TO.C,R1*%
X39370000Y-20320000D03*
D12*
X31750000Y-20320000D03*
%TD*%
D13*
%TO.C,U1*%
X20320000Y-15240000D03*
D12*
X20320000Y-17780000D03*
X20320000Y-20320000D03*
X20320000Y-22860000D03*
X20320000Y-25400000D03*
X20320000Y-27940000D03*
X20320000Y-30480000D03*
X20320000Y-33020000D03*
X27940000Y-33020000D03*
X27940000Y-30480000D03*
X27940000Y-27940000D03*
X27940000Y-25400000D03*
X27940000Y-22860000D03*
X27940000Y-20320000D03*
X27940000Y-17780000D03*
X27940000Y-15240000D03*
%TD*%
D14*
%TO.C,REF\u002A\u002A*%
X55880000Y-43180000D03*
%TD*%
%TO.C,REF\u002A\u002A*%
X15240000Y-43180000D03*
%TD*%
D11*
%TO.C,C2*%
X38100000Y-30480000D03*
X33100000Y-30480000D03*
%TD*%
D15*
%TO.C,X1*%
X43180000Y-41120000D03*
X43180000Y-36240000D03*
%TD*%
D11*
%TO.C,C3*%
X35560000Y-43100000D03*
X35560000Y-38100000D03*
%TD*%
D14*
%TO.C,REF\u002A\u002A*%
X55880000Y-15240000D03*
%TD*%
%TO.C,REF\u002A\u002A*%
X15240000Y-15240000D03*
%TD*%
D16*
%TO.C,J1*%
X21480000Y-39690000D03*
D17*
X26560000Y-39690000D03*
%TD*%
D13*
%TO.C,U2*%
X43180000Y-15240000D03*
D12*
X43180000Y-17780000D03*
X43180000Y-20320000D03*
X43180000Y-22860000D03*
X43180000Y-25400000D03*
X43180000Y-27940000D03*
X43180000Y-30480000D03*
X50800000Y-30480000D03*
X50800000Y-27940000D03*
X50800000Y-25400000D03*
X50800000Y-22860000D03*
X50800000Y-20320000D03*
X50800000Y-17780000D03*
X50800000Y-15240000D03*
%TD*%
D11*
%TO.C,C1*%
X33020000Y-25400000D03*
X38020000Y-25400000D03*
%TD*%
M02*
