M48
; DRILL file {KiCad 7.0.9} date Wed 22 Nov 2023 08:23:02 PM
; FORMAT={-:-/ absolute / inch / decimal}
; #@! TF.CreationDate,2023-11-22T20:23:02-05:00
; #@! TF.GenerationSoftware,Kicad,Pcbnew,7.0.9
; #@! TF.FileFunction,Plated,1,2,PTH
FMAT,2
INCH
; #@! TA.AperFunction,Plated,PTH,ComponentDrill
T1C0.0315
; #@! TA.AperFunction,Plated,PTH,ComponentDrill
T2C0.0598
%
G90
G05
T1
X0.8Y-0.6
X0.8Y-0.7
X0.8Y-0.8
X0.8Y-0.9
X0.8Y-1.0
X0.8Y-1.1
X0.8Y-1.2
X0.8Y-1.3
X1.1Y-0.6
X1.1Y-0.7
X1.1Y-0.8
X1.1Y-0.9
X1.1Y-1.0
X1.1Y-1.1
X1.1Y-1.2
X1.1Y-1.3
X1.25Y-0.6
X1.25Y-0.8
X1.3Y-1.0
X1.3031Y-1.2
X1.4Y-1.5
X1.4Y-1.6969
X1.4969Y-1.0
X1.5Y-1.2
X1.55Y-0.6
X1.55Y-0.8
X1.7Y-0.6
X1.7Y-0.7
X1.7Y-0.8
X1.7Y-0.9
X1.7Y-1.0
X1.7Y-1.1
X1.7Y-1.2
X1.7Y-1.4268
X1.7Y-1.6189
X2.0Y-0.6
X2.0Y-0.7
X2.0Y-0.8
X2.0Y-0.9
X2.0Y-1.0
X2.0Y-1.1
X2.0Y-1.2
X2.0Y-1.4
T2
X0.8457Y-1.5626
X1.0457Y-1.5626
T0
M30
