%TF.GenerationSoftware,KiCad,Pcbnew,7.0.9*%
%TF.CreationDate,2023-11-22T20:22:54-05:00*%
%TF.ProjectId,tick-circuit,7469636b-2d63-4697-9263-7569742e6b69,rev?*%
%TF.SameCoordinates,Original*%
%TF.FileFunction,Copper,L1,Top*%
%TF.FilePolarity,Positive*%
%FSLAX46Y46*%
G04 Gerber Fmt 4.6, Leading zero omitted, Abs format (unit mm)*
G04 Created by KiCad (PCBNEW 7.0.9) date 2023-11-22 20:22:54*
%MOMM*%
%LPD*%
G01*
G04 APERTURE LIST*
%TA.AperFunction,ComponentPad*%
%ADD10R,1.350000X1.350000*%
%TD*%
%TA.AperFunction,ComponentPad*%
%ADD11C,1.600000*%
%TD*%
%TA.AperFunction,ComponentPad*%
%ADD12O,1.600000X1.600000*%
%TD*%
%TA.AperFunction,ComponentPad*%
%ADD13R,1.600000X1.600000*%
%TD*%
%TA.AperFunction,ComponentPad*%
%ADD14C,1.500000*%
%TD*%
%TA.AperFunction,ComponentPad*%
%ADD15R,3.000000X3.000000*%
%TD*%
%TA.AperFunction,ComponentPad*%
%ADD16C,3.000000*%
%TD*%
%TA.AperFunction,Conductor*%
%ADD17C,0.250000*%
%TD*%
G04 APERTURE END LIST*
D10*
%TO.P,J2,1,Pin_1*%
%TO.N,Net-(J2-Pin_1)*%
X50800000Y-35560000D03*
%TD*%
D11*
%TO.P,R2,1*%
%TO.N,Net-(U1-RS)*%
X31750000Y-15240000D03*
D12*
%TO.P,R2,2*%
%TO.N,Net-(C2-Pad1)*%
X39370000Y-15240000D03*
%TD*%
D11*
%TO.P,R1,1*%
%TO.N,Net-(U1-RTC)*%
X39370000Y-20320000D03*
D12*
%TO.P,R1,2*%
%TO.N,Net-(U1-RS)*%
X31750000Y-20320000D03*
%TD*%
D13*
%TO.P,U1,1,Q11*%
%TO.N,unconnected-(U1-Q11-Pad1)*%
X20320000Y-15240000D03*
D12*
%TO.P,U1,2,Q12*%
%TO.N,unconnected-(U1-Q12-Pad2)*%
X20320000Y-17780000D03*
%TO.P,U1,3,Q13*%
%TO.N,Net-(U1-Q13)*%
X20320000Y-20320000D03*
%TO.P,U1,4,Q5*%
%TO.N,unconnected-(U1-Q5-Pad4)*%
X20320000Y-22860000D03*
%TO.P,U1,5,Q4*%
%TO.N,unconnected-(U1-Q4-Pad5)*%
X20320000Y-25400000D03*
%TO.P,U1,6,Q6*%
%TO.N,unconnected-(U1-Q6-Pad6)*%
X20320000Y-27940000D03*
%TO.P,U1,7,Q3*%
%TO.N,unconnected-(U1-Q3-Pad7)*%
X20320000Y-30480000D03*
%TO.P,U1,8,GND*%
%TO.N,GND*%
X20320000Y-33020000D03*
%TO.P,U1,9,CTC*%
%TO.N,unconnected-(U1-CTC-Pad9)*%
X27940000Y-33020000D03*
%TO.P,U1,10,RTC*%
%TO.N,Net-(U1-RTC)*%
X27940000Y-30480000D03*
%TO.P,U1,11,RS*%
%TO.N,Net-(U1-RS)*%
X27940000Y-27940000D03*
%TO.P,U1,12,MR*%
%TO.N,GND*%
X27940000Y-25400000D03*
%TO.P,U1,13,Q8*%
%TO.N,unconnected-(U1-Q8-Pad13)*%
X27940000Y-22860000D03*
%TO.P,U1,14,Q7*%
%TO.N,unconnected-(U1-Q7-Pad14)*%
X27940000Y-20320000D03*
%TO.P,U1,15,Q9*%
%TO.N,unconnected-(U1-Q9-Pad15)*%
X27940000Y-17780000D03*
%TO.P,U1,16,V+*%
%TO.N,+5V*%
X27940000Y-15240000D03*
%TD*%
D11*
%TO.P,C2,1*%
%TO.N,Net-(C2-Pad1)*%
X38100000Y-30480000D03*
%TO.P,C2,2*%
%TO.N,GND*%
X33100000Y-30480000D03*
%TD*%
D14*
%TO.P,X1,1,1*%
%TO.N,Net-(U1-RTC)*%
X43180000Y-41120000D03*
%TO.P,X1,2,2*%
%TO.N,Net-(C2-Pad1)*%
X43180000Y-36240000D03*
%TD*%
D11*
%TO.P,C3,1*%
%TO.N,+5V*%
X35560000Y-43100000D03*
%TO.P,C3,2*%
%TO.N,GND*%
X35560000Y-38100000D03*
%TD*%
D15*
%TO.P,J1,1,Pin_1*%
%TO.N,+5V*%
X21480000Y-39690000D03*
D16*
%TO.P,J1,2,Pin_2*%
%TO.N,GND*%
X26560000Y-39690000D03*
%TD*%
D13*
%TO.P,U2,1,C*%
%TO.N,Net-(U1-Q13)*%
X43180000Y-15240000D03*
D12*
%TO.P,U2,2,~{R}*%
%TO.N,+5V*%
X43180000Y-17780000D03*
%TO.P,U2,3,K*%
X43180000Y-20320000D03*
%TO.P,U2,4,VCC*%
X43180000Y-22860000D03*
%TO.P,U2,5,C*%
%TO.N,Net-(U2A-C)*%
X43180000Y-25400000D03*
%TO.P,U2,6,~{R}*%
%TO.N,+5V*%
X43180000Y-27940000D03*
%TO.P,U2,7,J*%
X43180000Y-30480000D03*
%TO.P,U2,8,~{Q}*%
%TO.N,unconnected-(U2A-~{Q}-Pad8)*%
X50800000Y-30480000D03*
%TO.P,U2,9,Q*%
%TO.N,Net-(J2-Pin_1)*%
X50800000Y-27940000D03*
%TO.P,U2,10,K*%
%TO.N,+5V*%
X50800000Y-25400000D03*
%TO.P,U2,11,GND*%
%TO.N,GND*%
X50800000Y-22860000D03*
%TO.P,U2,12,Q*%
%TO.N,Net-(U2A-C)*%
X50800000Y-20320000D03*
%TO.P,U2,13,~{Q}*%
%TO.N,unconnected-(U2B-~{Q}-Pad13)*%
X50800000Y-17780000D03*
%TO.P,U2,14,J*%
%TO.N,+5V*%
X50800000Y-15240000D03*
%TD*%
D11*
%TO.P,C1,1*%
%TO.N,Net-(U1-RTC)*%
X33020000Y-25400000D03*
%TO.P,C1,2*%
%TO.N,GND*%
X38020000Y-25400000D03*
%TD*%
D17*
%TO.N,Net-(U1-RTC)*%
X39370000Y-20320000D02*
X38100000Y-20320000D01*
X38100000Y-20320000D02*
X33020000Y-25400000D01*
%TO.N,Net-(U1-RS)*%
X31750000Y-20320000D02*
X31750000Y-15696827D01*
X31750000Y-15696827D02*
X31978414Y-15468413D01*
X27940000Y-27940000D02*
X31750000Y-24130000D01*
X31750000Y-24130000D02*
X31750000Y-20320000D01*
%TO.N,Net-(U1-RTC)*%
X39370000Y-20320000D02*
X39370000Y-26670000D01*
X39370000Y-26670000D02*
X36975000Y-29065000D01*
X36975000Y-29065000D02*
X36975000Y-33020000D01*
%TO.N,Net-(C2-Pad1)*%
X38100000Y-30480000D02*
X40495000Y-28085000D01*
X40495000Y-16365000D02*
X39370000Y-15240000D01*
X40495000Y-28085000D02*
X40495000Y-16365000D01*
%TO.N,Net-(J2-Pin_1)*%
X50800000Y-35560000D02*
X49675000Y-34435000D01*
X49675000Y-34435000D02*
X49675000Y-29065000D01*
X49675000Y-29065000D02*
X50800000Y-27940000D01*
%TO.N,Net-(U1-RTC)*%
X43180000Y-41120000D02*
X36975000Y-34915000D01*
X36975000Y-33020000D02*
X30480000Y-33020000D01*
X30480000Y-33020000D02*
X27940000Y-30480000D01*
X36975000Y-34915000D02*
X36975000Y-33020000D01*
X43180000Y-40640000D02*
X43180000Y-41120000D01*
%TO.N,Net-(C2-Pad1)*%
X43180000Y-36240000D02*
X38100000Y-31160000D01*
X38100000Y-31160000D02*
X38100000Y-30480000D01*
%TO.N,Net-(U2A-C)*%
X48260000Y-20320000D02*
X43180000Y-25400000D01*
X50800000Y-20320000D02*
X48260000Y-20320000D01*
%TD*%
%TA.AperFunction,Conductor*%
%TO.N,GND*%
G36*
X38304015Y-21103088D02*
G01*
X38359948Y-21144960D01*
X38362256Y-21148147D01*
X38369954Y-21159141D01*
X38530858Y-21320045D01*
X38691623Y-21432613D01*
X38735248Y-21487189D01*
X38744500Y-21534188D01*
X38744500Y-24108807D01*
X38724815Y-24175846D01*
X38672011Y-24221601D01*
X38602853Y-24231545D01*
X38568096Y-24221189D01*
X38466331Y-24173735D01*
X38466317Y-24173730D01*
X38246610Y-24114860D01*
X38246599Y-24114858D01*
X38020002Y-24095034D01*
X38019998Y-24095034D01*
X37793400Y-24114858D01*
X37793389Y-24114860D01*
X37573682Y-24173730D01*
X37573673Y-24173734D01*
X37367513Y-24269868D01*
X37294526Y-24320973D01*
X37975599Y-25002046D01*
X37894852Y-25014835D01*
X37781955Y-25072359D01*
X37692359Y-25161955D01*
X37634835Y-25274852D01*
X37622046Y-25355599D01*
X36940973Y-24674526D01*
X36940972Y-24674527D01*
X36889868Y-24747513D01*
X36793734Y-24953673D01*
X36793730Y-24953682D01*
X36734860Y-25173389D01*
X36734858Y-25173400D01*
X36715034Y-25399997D01*
X36715034Y-25400002D01*
X36734858Y-25626599D01*
X36734860Y-25626610D01*
X36793730Y-25846317D01*
X36793734Y-25846326D01*
X36889865Y-26052481D01*
X36889866Y-26052483D01*
X36940973Y-26125471D01*
X36940974Y-26125472D01*
X37622046Y-25444399D01*
X37634835Y-25525148D01*
X37692359Y-25638045D01*
X37781955Y-25727641D01*
X37894852Y-25785165D01*
X37975597Y-25797953D01*
X37294526Y-26479025D01*
X37294526Y-26479026D01*
X37367512Y-26530131D01*
X37367516Y-26530133D01*
X37573673Y-26626265D01*
X37573682Y-26626269D01*
X37793389Y-26685139D01*
X37793400Y-26685141D01*
X38019998Y-26704966D01*
X38020001Y-26704966D01*
X38152320Y-26693389D01*
X38220820Y-26707155D01*
X38271003Y-26755770D01*
X38286937Y-26823799D01*
X38263562Y-26889643D01*
X38250809Y-26904598D01*
X36591208Y-28564199D01*
X36578951Y-28574020D01*
X36579134Y-28574241D01*
X36573123Y-28579213D01*
X36525772Y-28629636D01*
X36504889Y-28650519D01*
X36504877Y-28650532D01*
X36500621Y-28656017D01*
X36496837Y-28660447D01*
X36464937Y-28694418D01*
X36464936Y-28694420D01*
X36455284Y-28711976D01*
X36444610Y-28728226D01*
X36432329Y-28744061D01*
X36432324Y-28744068D01*
X36413815Y-28786838D01*
X36411245Y-28792084D01*
X36388803Y-28832906D01*
X36383822Y-28852307D01*
X36377521Y-28870710D01*
X36369562Y-28889102D01*
X36369561Y-28889105D01*
X36362271Y-28935127D01*
X36361087Y-28940846D01*
X36349501Y-28985972D01*
X36349500Y-28985982D01*
X36349500Y-29006016D01*
X36347973Y-29025415D01*
X36344840Y-29045194D01*
X36344840Y-29045195D01*
X36349225Y-29091583D01*
X36349500Y-29097421D01*
X36349500Y-32270500D01*
X36329815Y-32337539D01*
X36277011Y-32383294D01*
X36225500Y-32394500D01*
X30790453Y-32394500D01*
X30723414Y-32374815D01*
X30702772Y-32358181D01*
X29239413Y-30894822D01*
X29205928Y-30833499D01*
X29207319Y-30775048D01*
X29225635Y-30706692D01*
X29245468Y-30480002D01*
X31795034Y-30480002D01*
X31814858Y-30706599D01*
X31814860Y-30706610D01*
X31873730Y-30926317D01*
X31873734Y-30926326D01*
X31969865Y-31132481D01*
X31969866Y-31132483D01*
X32020973Y-31205471D01*
X32020974Y-31205472D01*
X32702046Y-30524399D01*
X32714835Y-30605148D01*
X32772359Y-30718045D01*
X32861955Y-30807641D01*
X32974852Y-30865165D01*
X33055599Y-30877953D01*
X32374526Y-31559025D01*
X32374526Y-31559026D01*
X32447512Y-31610131D01*
X32447516Y-31610133D01*
X32653673Y-31706265D01*
X32653682Y-31706269D01*
X32873389Y-31765139D01*
X32873400Y-31765141D01*
X33099998Y-31784966D01*
X33100002Y-31784966D01*
X33326599Y-31765141D01*
X33326610Y-31765139D01*
X33546317Y-31706269D01*
X33546331Y-31706264D01*
X33752478Y-31610136D01*
X33825472Y-31559025D01*
X33144401Y-30877953D01*
X33225148Y-30865165D01*
X33338045Y-30807641D01*
X33427641Y-30718045D01*
X33485165Y-30605148D01*
X33497953Y-30524400D01*
X34179025Y-31205472D01*
X34230136Y-31132478D01*
X34326264Y-30926331D01*
X34326269Y-30926317D01*
X34385139Y-30706610D01*
X34385141Y-30706599D01*
X34404966Y-30480002D01*
X34404966Y-30479997D01*
X34385141Y-30253400D01*
X34385139Y-30253389D01*
X34326269Y-30033682D01*
X34326265Y-30033673D01*
X34230133Y-29827516D01*
X34230131Y-29827512D01*
X34179026Y-29754526D01*
X34179025Y-29754526D01*
X33497953Y-30435598D01*
X33485165Y-30354852D01*
X33427641Y-30241955D01*
X33338045Y-30152359D01*
X33225148Y-30094835D01*
X33144400Y-30082046D01*
X33825472Y-29400974D01*
X33825471Y-29400973D01*
X33752483Y-29349866D01*
X33752481Y-29349865D01*
X33546326Y-29253734D01*
X33546317Y-29253730D01*
X33326610Y-29194860D01*
X33326599Y-29194858D01*
X33100002Y-29175034D01*
X33099998Y-29175034D01*
X32873400Y-29194858D01*
X32873389Y-29194860D01*
X32653682Y-29253730D01*
X32653673Y-29253734D01*
X32447513Y-29349868D01*
X32374527Y-29400972D01*
X32374526Y-29400973D01*
X33055600Y-30082046D01*
X32974852Y-30094835D01*
X32861955Y-30152359D01*
X32772359Y-30241955D01*
X32714835Y-30354852D01*
X32702046Y-30435599D01*
X32020973Y-29754526D01*
X32020972Y-29754527D01*
X31969868Y-29827513D01*
X31873734Y-30033673D01*
X31873730Y-30033682D01*
X31814860Y-30253389D01*
X31814858Y-30253400D01*
X31795034Y-30479997D01*
X31795034Y-30480002D01*
X29245468Y-30480002D01*
X29245468Y-30480000D01*
X29225635Y-30253308D01*
X29166739Y-30033504D01*
X29070568Y-29827266D01*
X28940047Y-29640861D01*
X28940045Y-29640858D01*
X28779141Y-29479954D01*
X28592734Y-29349432D01*
X28592728Y-29349429D01*
X28534725Y-29322382D01*
X28482285Y-29276210D01*
X28463133Y-29209017D01*
X28483348Y-29142135D01*
X28534725Y-29097618D01*
X28592734Y-29070568D01*
X28779139Y-28940047D01*
X28940047Y-28779139D01*
X29070568Y-28592734D01*
X29166739Y-28386496D01*
X29225635Y-28166692D01*
X29245468Y-27940000D01*
X29225635Y-27713308D01*
X29207318Y-27644947D01*
X29208981Y-27575101D01*
X29239410Y-27525178D01*
X31507183Y-25257405D01*
X31568504Y-25223922D01*
X31638196Y-25228906D01*
X31694129Y-25270778D01*
X31718546Y-25336242D01*
X31718390Y-25355894D01*
X31714532Y-25399996D01*
X31714532Y-25400001D01*
X31734364Y-25626686D01*
X31734366Y-25626697D01*
X31793258Y-25846488D01*
X31793261Y-25846497D01*
X31889431Y-26052732D01*
X31889432Y-26052734D01*
X32019954Y-26239141D01*
X32180858Y-26400045D01*
X32180861Y-26400047D01*
X32367266Y-26530568D01*
X32573504Y-26626739D01*
X32793308Y-26685635D01*
X32955230Y-26699801D01*
X33019998Y-26705468D01*
X33020000Y-26705468D01*
X33020002Y-26705468D01*
X33076673Y-26700509D01*
X33246692Y-26685635D01*
X33466496Y-26626739D01*
X33672734Y-26530568D01*
X33859139Y-26400047D01*
X34020047Y-26239139D01*
X34150568Y-26052734D01*
X34246739Y-25846496D01*
X34305635Y-25626692D01*
X34325468Y-25400000D01*
X34305635Y-25173308D01*
X34287318Y-25104948D01*
X34288981Y-25035103D01*
X34319410Y-24985179D01*
X38173002Y-21131587D01*
X38234323Y-21098104D01*
X38304015Y-21103088D01*
G37*
%TD.AperFunction*%
%TA.AperFunction,Conductor*%
G36*
X58362539Y-12720185D02*
G01*
X58408294Y-12772989D01*
X58419500Y-12824500D01*
X58419500Y-45595500D01*
X58399815Y-45662539D01*
X58347011Y-45708294D01*
X58295500Y-45719500D01*
X12824500Y-45719500D01*
X12757461Y-45699815D01*
X12711706Y-45647011D01*
X12700500Y-45595500D01*
X12700500Y-43247763D01*
X13385787Y-43247763D01*
X13415413Y-43517013D01*
X13415415Y-43517024D01*
X13477038Y-43752734D01*
X13483928Y-43779088D01*
X13589870Y-44028390D01*
X13633601Y-44100045D01*
X13730979Y-44259605D01*
X13730986Y-44259615D01*
X13904253Y-44467819D01*
X13904259Y-44467824D01*
X14105998Y-44648582D01*
X14331910Y-44798044D01*
X14577176Y-44913020D01*
X14577183Y-44913022D01*
X14577185Y-44913023D01*
X14836557Y-44991057D01*
X14836564Y-44991058D01*
X14836569Y-44991060D01*
X15104561Y-45030500D01*
X15104566Y-45030500D01*
X15307636Y-45030500D01*
X15359133Y-45026730D01*
X15510156Y-45015677D01*
X15622758Y-44990593D01*
X15774546Y-44956782D01*
X15774548Y-44956781D01*
X15774553Y-44956780D01*
X16027558Y-44860014D01*
X16263777Y-44727441D01*
X16478177Y-44561888D01*
X16666186Y-44366881D01*
X16823799Y-44146579D01*
X16930451Y-43939139D01*
X16947649Y-43905690D01*
X16947651Y-43905684D01*
X16947656Y-43905675D01*
X17035118Y-43649305D01*
X17084319Y-43382933D01*
X17094212Y-43112235D01*
X17092866Y-43100001D01*
X34254532Y-43100001D01*
X34274364Y-43326686D01*
X34274366Y-43326697D01*
X34333258Y-43546488D01*
X34333261Y-43546497D01*
X34429431Y-43752732D01*
X34429432Y-43752734D01*
X34559954Y-43939141D01*
X34720858Y-44100045D01*
X34720861Y-44100047D01*
X34907266Y-44230568D01*
X35113504Y-44326739D01*
X35333308Y-44385635D01*
X35495230Y-44399801D01*
X35559998Y-44405468D01*
X35560000Y-44405468D01*
X35560002Y-44405468D01*
X35616673Y-44400509D01*
X35786692Y-44385635D01*
X36006496Y-44326739D01*
X36212734Y-44230568D01*
X36399139Y-44100047D01*
X36560047Y-43939139D01*
X36690568Y-43752734D01*
X36786739Y-43546496D01*
X36845635Y-43326692D01*
X36852540Y-43247763D01*
X54025787Y-43247763D01*
X54055413Y-43517013D01*
X54055415Y-43517024D01*
X54117038Y-43752734D01*
X54123928Y-43779088D01*
X54229870Y-44028390D01*
X54273601Y-44100045D01*
X54370979Y-44259605D01*
X54370986Y-44259615D01*
X54544253Y-44467819D01*
X54544259Y-44467824D01*
X54745998Y-44648582D01*
X54971910Y-44798044D01*
X55217176Y-44913020D01*
X55217183Y-44913022D01*
X55217185Y-44913023D01*
X55476557Y-44991057D01*
X55476564Y-44991058D01*
X55476569Y-44991060D01*
X55744561Y-45030500D01*
X55744566Y-45030500D01*
X55947636Y-45030500D01*
X55999133Y-45026730D01*
X56150156Y-45015677D01*
X56262758Y-44990593D01*
X56414546Y-44956782D01*
X56414548Y-44956781D01*
X56414553Y-44956780D01*
X56667558Y-44860014D01*
X56903777Y-44727441D01*
X57118177Y-44561888D01*
X57306186Y-44366881D01*
X57463799Y-44146579D01*
X57570451Y-43939139D01*
X57587649Y-43905690D01*
X57587651Y-43905684D01*
X57587656Y-43905675D01*
X57675118Y-43649305D01*
X57724319Y-43382933D01*
X57734212Y-43112235D01*
X57704586Y-42842982D01*
X57636072Y-42580912D01*
X57530130Y-42331610D01*
X57389018Y-42100390D01*
X57299747Y-41993119D01*
X57215746Y-41892180D01*
X57215740Y-41892175D01*
X57014002Y-41711418D01*
X56788092Y-41561957D01*
X56757353Y-41547547D01*
X56542824Y-41446980D01*
X56542819Y-41446978D01*
X56542814Y-41446976D01*
X56283442Y-41368942D01*
X56283428Y-41368939D01*
X56167791Y-41351921D01*
X56015439Y-41329500D01*
X55812369Y-41329500D01*
X55812364Y-41329500D01*
X55609844Y-41344323D01*
X55609831Y-41344325D01*
X55345453Y-41403217D01*
X55345446Y-41403220D01*
X55092439Y-41499987D01*
X54856226Y-41632557D01*
X54641822Y-41798112D01*
X54453822Y-41993109D01*
X54453816Y-41993116D01*
X54296202Y-42213419D01*
X54296199Y-42213424D01*
X54172350Y-42454309D01*
X54172343Y-42454327D01*
X54084884Y-42710685D01*
X54084881Y-42710699D01*
X54035681Y-42977068D01*
X54035680Y-42977075D01*
X54025787Y-43247763D01*
X36852540Y-43247763D01*
X36865468Y-43100000D01*
X36845635Y-42873308D01*
X36786739Y-42653504D01*
X36690568Y-42447266D01*
X36560047Y-42260861D01*
X36560045Y-42260858D01*
X36399141Y-42099954D01*
X36212734Y-41969432D01*
X36212732Y-41969431D01*
X36006497Y-41873261D01*
X36006488Y-41873258D01*
X35786697Y-41814366D01*
X35786693Y-41814365D01*
X35786692Y-41814365D01*
X35786691Y-41814364D01*
X35786686Y-41814364D01*
X35560002Y-41794532D01*
X35559998Y-41794532D01*
X35333313Y-41814364D01*
X35333302Y-41814366D01*
X35113511Y-41873258D01*
X35113502Y-41873261D01*
X34907267Y-41969431D01*
X34907265Y-41969432D01*
X34720858Y-42099954D01*
X34559954Y-42260858D01*
X34429432Y-42447265D01*
X34429431Y-42447267D01*
X34333261Y-42653502D01*
X34333258Y-42653511D01*
X34274366Y-42873302D01*
X34274364Y-42873313D01*
X34254532Y-43099998D01*
X34254532Y-43100001D01*
X17092866Y-43100001D01*
X17064586Y-42842982D01*
X16996072Y-42580912D01*
X16890130Y-42331610D01*
X16749018Y-42100390D01*
X16659747Y-41993119D01*
X16575746Y-41892180D01*
X16575740Y-41892175D01*
X16374002Y-41711418D01*
X16148092Y-41561957D01*
X16117353Y-41547547D01*
X15902824Y-41446980D01*
X15902819Y-41446978D01*
X15902814Y-41446976D01*
X15643442Y-41368942D01*
X15643428Y-41368939D01*
X15527791Y-41351921D01*
X15375439Y-41329500D01*
X15172369Y-41329500D01*
X15172364Y-41329500D01*
X14969844Y-41344323D01*
X14969831Y-41344325D01*
X14705453Y-41403217D01*
X14705446Y-41403220D01*
X14452439Y-41499987D01*
X14216226Y-41632557D01*
X14001822Y-41798112D01*
X13813822Y-41993109D01*
X13813816Y-41993116D01*
X13656202Y-42213419D01*
X13656199Y-42213424D01*
X13532350Y-42454309D01*
X13532343Y-42454327D01*
X13444884Y-42710685D01*
X13444881Y-42710699D01*
X13395681Y-42977068D01*
X13395680Y-42977075D01*
X13385787Y-43247763D01*
X12700500Y-43247763D01*
X12700500Y-41237870D01*
X19479500Y-41237870D01*
X19479501Y-41237876D01*
X19485908Y-41297483D01*
X19536202Y-41432328D01*
X19536206Y-41432335D01*
X19622452Y-41547544D01*
X19622455Y-41547547D01*
X19737664Y-41633793D01*
X19737671Y-41633797D01*
X19872517Y-41684091D01*
X19872516Y-41684091D01*
X19879444Y-41684835D01*
X19932127Y-41690500D01*
X23027872Y-41690499D01*
X23087483Y-41684091D01*
X23222331Y-41633796D01*
X23337546Y-41547546D01*
X23423796Y-41432331D01*
X23474091Y-41297483D01*
X23480500Y-41237873D01*
X23480500Y-39690001D01*
X24554891Y-39690001D01*
X24575300Y-39975362D01*
X24636109Y-40254895D01*
X24736091Y-40522958D01*
X24873191Y-40774038D01*
X24873196Y-40774046D01*
X24979882Y-40916561D01*
X24979883Y-40916562D01*
X25875195Y-40021250D01*
X25897340Y-40072587D01*
X26003433Y-40215094D01*
X26139530Y-40329294D01*
X26229216Y-40374335D01*
X25333436Y-41270115D01*
X25475960Y-41376807D01*
X25475961Y-41376808D01*
X25727042Y-41513908D01*
X25727041Y-41513908D01*
X25995104Y-41613890D01*
X26274637Y-41674699D01*
X26559999Y-41695109D01*
X26560001Y-41695109D01*
X26845362Y-41674699D01*
X27124895Y-41613890D01*
X27392958Y-41513908D01*
X27644047Y-41376803D01*
X27786561Y-41270116D01*
X27786562Y-41270115D01*
X26893748Y-40377300D01*
X26903409Y-40373784D01*
X27051844Y-40276157D01*
X27173764Y-40146930D01*
X27245768Y-40022215D01*
X28140115Y-40916562D01*
X28140116Y-40916561D01*
X28246803Y-40774047D01*
X28383908Y-40522958D01*
X28483890Y-40254895D01*
X28544699Y-39975362D01*
X28565109Y-39690001D01*
X28565109Y-39689998D01*
X28544699Y-39404637D01*
X28483890Y-39125104D01*
X28383908Y-38857041D01*
X28246808Y-38605961D01*
X28246807Y-38605960D01*
X28140115Y-38463436D01*
X27244803Y-39358747D01*
X27222660Y-39307413D01*
X27116567Y-39164906D01*
X26980470Y-39050706D01*
X26890782Y-39005663D01*
X27786562Y-38109883D01*
X27786561Y-38109882D01*
X27773363Y-38100002D01*
X34255034Y-38100002D01*
X34274858Y-38326599D01*
X34274860Y-38326610D01*
X34333730Y-38546317D01*
X34333734Y-38546326D01*
X34429865Y-38752481D01*
X34429866Y-38752483D01*
X34480973Y-38825471D01*
X34480974Y-38825472D01*
X35162046Y-38144399D01*
X35174835Y-38225148D01*
X35232359Y-38338045D01*
X35321955Y-38427641D01*
X35434852Y-38485165D01*
X35515599Y-38497953D01*
X34834526Y-39179025D01*
X34834526Y-39179026D01*
X34907512Y-39230131D01*
X34907516Y-39230133D01*
X35113673Y-39326265D01*
X35113682Y-39326269D01*
X35333389Y-39385139D01*
X35333400Y-39385141D01*
X35559998Y-39404966D01*
X35560002Y-39404966D01*
X35786599Y-39385141D01*
X35786610Y-39385139D01*
X36006317Y-39326269D01*
X36006331Y-39326264D01*
X36212478Y-39230136D01*
X36285472Y-39179025D01*
X35604401Y-38497953D01*
X35685148Y-38485165D01*
X35798045Y-38427641D01*
X35887641Y-38338045D01*
X35945165Y-38225148D01*
X35957953Y-38144400D01*
X36639025Y-38825472D01*
X36690136Y-38752478D01*
X36786264Y-38546331D01*
X36786269Y-38546317D01*
X36845139Y-38326610D01*
X36845141Y-38326599D01*
X36864966Y-38100002D01*
X36864966Y-38099997D01*
X36845141Y-37873400D01*
X36845139Y-37873389D01*
X36786269Y-37653682D01*
X36786265Y-37653673D01*
X36690133Y-37447516D01*
X36690131Y-37447512D01*
X36639026Y-37374526D01*
X36639025Y-37374526D01*
X35957953Y-38055598D01*
X35945165Y-37974852D01*
X35887641Y-37861955D01*
X35798045Y-37772359D01*
X35685148Y-37714835D01*
X35604400Y-37702046D01*
X36285472Y-37020974D01*
X36285471Y-37020973D01*
X36212483Y-36969866D01*
X36212481Y-36969865D01*
X36006326Y-36873734D01*
X36006317Y-36873730D01*
X35786610Y-36814860D01*
X35786599Y-36814858D01*
X35560002Y-36795034D01*
X35559998Y-36795034D01*
X35333400Y-36814858D01*
X35333389Y-36814860D01*
X35113682Y-36873730D01*
X35113673Y-36873734D01*
X34907513Y-36969868D01*
X34834527Y-37020972D01*
X34834526Y-37020973D01*
X35515600Y-37702046D01*
X35434852Y-37714835D01*
X35321955Y-37772359D01*
X35232359Y-37861955D01*
X35174835Y-37974852D01*
X35162046Y-38055599D01*
X34480973Y-37374526D01*
X34480972Y-37374527D01*
X34429868Y-37447513D01*
X34333734Y-37653673D01*
X34333730Y-37653682D01*
X34274860Y-37873389D01*
X34274858Y-37873400D01*
X34255034Y-38099997D01*
X34255034Y-38100002D01*
X27773363Y-38100002D01*
X27644046Y-38003196D01*
X27644038Y-38003191D01*
X27392957Y-37866091D01*
X27392958Y-37866091D01*
X27124895Y-37766109D01*
X26845362Y-37705300D01*
X26560001Y-37684891D01*
X26559999Y-37684891D01*
X26274637Y-37705300D01*
X25995104Y-37766109D01*
X25727041Y-37866091D01*
X25475961Y-38003191D01*
X25475953Y-38003196D01*
X25333437Y-38109882D01*
X25333436Y-38109883D01*
X26226252Y-39002699D01*
X26216591Y-39006216D01*
X26068156Y-39103843D01*
X25946236Y-39233070D01*
X25874231Y-39357784D01*
X24979883Y-38463436D01*
X24979882Y-38463437D01*
X24873196Y-38605953D01*
X24873191Y-38605961D01*
X24736091Y-38857041D01*
X24636109Y-39125104D01*
X24575300Y-39404637D01*
X24554891Y-39689998D01*
X24554891Y-39690001D01*
X23480500Y-39690001D01*
X23480499Y-38142128D01*
X23474091Y-38082517D01*
X23444506Y-38003196D01*
X23423797Y-37947671D01*
X23423793Y-37947664D01*
X23337547Y-37832455D01*
X23337544Y-37832452D01*
X23222335Y-37746206D01*
X23222328Y-37746202D01*
X23087482Y-37695908D01*
X23087483Y-37695908D01*
X23027883Y-37689501D01*
X23027881Y-37689500D01*
X23027873Y-37689500D01*
X23027864Y-37689500D01*
X19932129Y-37689500D01*
X19932123Y-37689501D01*
X19872516Y-37695908D01*
X19737671Y-37746202D01*
X19737664Y-37746206D01*
X19622455Y-37832452D01*
X19622452Y-37832455D01*
X19536206Y-37947664D01*
X19536202Y-37947671D01*
X19485908Y-38082517D01*
X19479501Y-38142116D01*
X19479501Y-38142123D01*
X19479500Y-38142135D01*
X19479500Y-41237870D01*
X12700500Y-41237870D01*
X12700500Y-30480001D01*
X19014532Y-30480001D01*
X19034364Y-30706686D01*
X19034366Y-30706697D01*
X19093258Y-30926488D01*
X19093261Y-30926497D01*
X19189431Y-31132732D01*
X19189432Y-31132734D01*
X19319954Y-31319141D01*
X19480858Y-31480045D01*
X19480861Y-31480047D01*
X19667266Y-31610568D01*
X19725865Y-31637893D01*
X19778305Y-31684065D01*
X19797457Y-31751258D01*
X19777242Y-31818139D01*
X19725867Y-31862657D01*
X19667515Y-31889867D01*
X19481179Y-32020342D01*
X19320342Y-32181179D01*
X19189865Y-32367517D01*
X19093734Y-32573673D01*
X19093730Y-32573682D01*
X19041127Y-32769999D01*
X19041128Y-32770000D01*
X20004314Y-32770000D01*
X19992359Y-32781955D01*
X19934835Y-32894852D01*
X19915014Y-33020000D01*
X19934835Y-33145148D01*
X19992359Y-33258045D01*
X20004314Y-33270000D01*
X19041128Y-33270000D01*
X19093730Y-33466317D01*
X19093734Y-33466326D01*
X19189865Y-33672482D01*
X19320342Y-33858820D01*
X19481179Y-34019657D01*
X19667517Y-34150134D01*
X19873673Y-34246265D01*
X19873682Y-34246269D01*
X20069999Y-34298872D01*
X20070000Y-34298871D01*
X20070000Y-33335686D01*
X20081955Y-33347641D01*
X20194852Y-33405165D01*
X20288519Y-33420000D01*
X20351481Y-33420000D01*
X20445148Y-33405165D01*
X20558045Y-33347641D01*
X20570000Y-33335686D01*
X20570000Y-34298872D01*
X20766317Y-34246269D01*
X20766326Y-34246265D01*
X20972482Y-34150134D01*
X21158820Y-34019657D01*
X21319657Y-33858820D01*
X21450134Y-33672482D01*
X21546265Y-33466326D01*
X21546269Y-33466317D01*
X21598872Y-33270000D01*
X20635686Y-33270000D01*
X20647641Y-33258045D01*
X20705165Y-33145148D01*
X20724986Y-33020001D01*
X26634532Y-33020001D01*
X26654364Y-33246686D01*
X26654366Y-33246697D01*
X26713258Y-33466488D01*
X26713261Y-33466497D01*
X26809431Y-33672732D01*
X26809432Y-33672734D01*
X26939954Y-33859141D01*
X27100858Y-34020045D01*
X27100861Y-34020047D01*
X27287266Y-34150568D01*
X27493504Y-34246739D01*
X27713308Y-34305635D01*
X27875230Y-34319801D01*
X27939998Y-34325468D01*
X27940000Y-34325468D01*
X27940002Y-34325468D01*
X27996673Y-34320509D01*
X28166692Y-34305635D01*
X28386496Y-34246739D01*
X28592734Y-34150568D01*
X28779139Y-34020047D01*
X28940047Y-33859139D01*
X29070568Y-33672734D01*
X29166739Y-33466496D01*
X29225635Y-33246692D01*
X29245468Y-33020000D01*
X29241609Y-32975896D01*
X29255375Y-32907399D01*
X29303989Y-32857215D01*
X29372018Y-32841281D01*
X29437862Y-32864655D01*
X29452818Y-32877409D01*
X29979197Y-33403788D01*
X29989022Y-33416051D01*
X29989243Y-33415869D01*
X29994214Y-33421878D01*
X30020217Y-33446295D01*
X30044635Y-33469226D01*
X30065529Y-33490120D01*
X30071011Y-33494373D01*
X30075443Y-33498157D01*
X30109418Y-33530062D01*
X30126976Y-33539714D01*
X30143235Y-33550395D01*
X30159064Y-33562673D01*
X30201838Y-33581182D01*
X30207056Y-33583738D01*
X30247908Y-33606197D01*
X30267316Y-33611180D01*
X30285717Y-33617480D01*
X30304104Y-33625437D01*
X30347488Y-33632308D01*
X30350119Y-33632725D01*
X30355839Y-33633909D01*
X30400981Y-33645500D01*
X30421016Y-33645500D01*
X30440414Y-33647026D01*
X30460194Y-33650159D01*
X30460195Y-33650160D01*
X30460195Y-33650159D01*
X30460196Y-33650160D01*
X30506584Y-33645775D01*
X30512422Y-33645500D01*
X36225500Y-33645500D01*
X36292539Y-33665185D01*
X36338294Y-33717989D01*
X36349500Y-33769500D01*
X36349500Y-34832255D01*
X36347775Y-34847872D01*
X36348061Y-34847899D01*
X36347326Y-34855665D01*
X36349500Y-34924814D01*
X36349500Y-34954343D01*
X36349501Y-34954360D01*
X36350368Y-34961231D01*
X36350826Y-34967050D01*
X36352290Y-35013624D01*
X36352291Y-35013627D01*
X36357880Y-35032867D01*
X36361824Y-35051911D01*
X36364336Y-35071791D01*
X36381490Y-35115119D01*
X36383382Y-35120647D01*
X36396381Y-35165388D01*
X36406580Y-35182634D01*
X36415138Y-35200103D01*
X36422514Y-35218732D01*
X36449898Y-35256423D01*
X36453106Y-35261307D01*
X36476827Y-35301416D01*
X36476833Y-35301424D01*
X36490990Y-35315580D01*
X36503628Y-35330376D01*
X36515405Y-35346586D01*
X36515406Y-35346587D01*
X36551309Y-35376288D01*
X36555620Y-35380210D01*
X40580046Y-39404637D01*
X41921411Y-40746002D01*
X41954896Y-40807325D01*
X41953505Y-40865775D01*
X41943794Y-40902017D01*
X41943794Y-40902020D01*
X41943793Y-40902023D01*
X41924723Y-41120000D01*
X41943051Y-41329500D01*
X41943793Y-41337975D01*
X41943793Y-41337979D01*
X42000422Y-41549322D01*
X42000424Y-41549326D01*
X42000425Y-41549330D01*
X42030530Y-41613890D01*
X42092897Y-41747638D01*
X42092898Y-41747639D01*
X42218402Y-41926877D01*
X42373123Y-42081598D01*
X42552361Y-42207102D01*
X42750670Y-42299575D01*
X42962023Y-42356207D01*
X43144926Y-42372208D01*
X43179998Y-42375277D01*
X43180000Y-42375277D01*
X43180002Y-42375277D01*
X43208254Y-42372805D01*
X43397977Y-42356207D01*
X43609330Y-42299575D01*
X43807639Y-42207102D01*
X43986877Y-42081598D01*
X44141598Y-41926877D01*
X44267102Y-41747639D01*
X44359575Y-41549330D01*
X44416207Y-41337977D01*
X44435277Y-41120000D01*
X44416207Y-40902023D01*
X44359575Y-40690670D01*
X44267102Y-40492362D01*
X44267100Y-40492359D01*
X44267099Y-40492357D01*
X44141599Y-40313124D01*
X44083370Y-40254895D01*
X43986877Y-40158402D01*
X43807639Y-40032898D01*
X43807640Y-40032898D01*
X43807638Y-40032897D01*
X43708484Y-39986661D01*
X43609330Y-39940425D01*
X43609326Y-39940424D01*
X43609322Y-39940422D01*
X43397977Y-39883793D01*
X43180002Y-39864723D01*
X43179998Y-39864723D01*
X43034682Y-39877436D01*
X42962023Y-39883793D01*
X42962021Y-39883793D01*
X42962017Y-39883794D01*
X42925775Y-39893505D01*
X42855925Y-39891842D01*
X42806002Y-39861411D01*
X37636819Y-34692228D01*
X37603334Y-34630905D01*
X37600500Y-34604547D01*
X37600500Y-33090844D01*
X37602697Y-33067606D01*
X37604227Y-33059588D01*
X37600621Y-33002275D01*
X37600500Y-32998403D01*
X37600500Y-31854136D01*
X37620185Y-31787097D01*
X37672989Y-31741342D01*
X37742147Y-31731398D01*
X37756583Y-31734358D01*
X37769820Y-31737905D01*
X37825409Y-31769999D01*
X41921411Y-35866002D01*
X41954896Y-35927325D01*
X41953505Y-35985775D01*
X41943794Y-36022017D01*
X41943793Y-36022024D01*
X41924723Y-36239997D01*
X41924723Y-36240002D01*
X41943793Y-36457975D01*
X41943793Y-36457979D01*
X42000422Y-36669322D01*
X42000424Y-36669326D01*
X42000425Y-36669330D01*
X42004840Y-36678797D01*
X42092897Y-36867638D01*
X42092898Y-36867639D01*
X42218402Y-37046877D01*
X42373123Y-37201598D01*
X42552361Y-37327102D01*
X42750670Y-37419575D01*
X42962023Y-37476207D01*
X43144926Y-37492208D01*
X43179998Y-37495277D01*
X43180000Y-37495277D01*
X43180002Y-37495277D01*
X43208254Y-37492805D01*
X43397977Y-37476207D01*
X43609330Y-37419575D01*
X43807639Y-37327102D01*
X43986877Y-37201598D01*
X44141598Y-37046877D01*
X44267102Y-36867639D01*
X44359575Y-36669330D01*
X44416207Y-36457977D01*
X44435277Y-36240000D01*
X44416207Y-36022023D01*
X44359575Y-35810670D01*
X44267102Y-35612362D01*
X44267100Y-35612359D01*
X44267099Y-35612357D01*
X44141599Y-35433124D01*
X44084763Y-35376288D01*
X43986877Y-35278402D01*
X43848978Y-35181844D01*
X43807638Y-35152897D01*
X43708484Y-35106661D01*
X43609330Y-35060425D01*
X43609326Y-35060424D01*
X43609322Y-35060422D01*
X43397977Y-35003793D01*
X43180002Y-34984723D01*
X43179998Y-34984723D01*
X43034682Y-34997436D01*
X42962023Y-35003793D01*
X42962021Y-35003793D01*
X42962017Y-35003794D01*
X42925774Y-35013505D01*
X42855924Y-35011841D01*
X42806001Y-34981411D01*
X39191609Y-31367018D01*
X39158124Y-31305695D01*
X39163108Y-31236003D01*
X39177711Y-31208220D01*
X39230568Y-31132734D01*
X39326739Y-30926496D01*
X39385635Y-30706692D01*
X39405468Y-30480001D01*
X41874532Y-30480001D01*
X41894364Y-30706686D01*
X41894366Y-30706697D01*
X41953258Y-30926488D01*
X41953261Y-30926497D01*
X42049431Y-31132732D01*
X42049432Y-31132734D01*
X42179954Y-31319141D01*
X42340858Y-31480045D01*
X42340861Y-31480047D01*
X42527266Y-31610568D01*
X42733504Y-31706739D01*
X42953308Y-31765635D01*
X43115230Y-31779801D01*
X43179998Y-31785468D01*
X43180000Y-31785468D01*
X43180002Y-31785468D01*
X43236673Y-31780509D01*
X43406692Y-31765635D01*
X43626496Y-31706739D01*
X43832734Y-31610568D01*
X44019139Y-31480047D01*
X44180047Y-31319139D01*
X44310568Y-31132734D01*
X44406739Y-30926496D01*
X44465635Y-30706692D01*
X44485468Y-30480000D01*
X44465635Y-30253308D01*
X44406739Y-30033504D01*
X44310568Y-29827266D01*
X44180047Y-29640861D01*
X44180045Y-29640858D01*
X44019141Y-29479954D01*
X43832734Y-29349432D01*
X43832728Y-29349429D01*
X43774725Y-29322382D01*
X43722285Y-29276210D01*
X43703133Y-29209017D01*
X43723348Y-29142135D01*
X43774725Y-29097618D01*
X43832734Y-29070568D01*
X44019139Y-28940047D01*
X44180047Y-28779139D01*
X44310568Y-28592734D01*
X44406739Y-28386496D01*
X44465635Y-28166692D01*
X44485468Y-27940000D01*
X44465635Y-27713308D01*
X44406739Y-27493504D01*
X44310568Y-27287266D01*
X44180047Y-27100861D01*
X44180045Y-27100858D01*
X44019141Y-26939954D01*
X43832734Y-26809432D01*
X43832728Y-26809429D01*
X43774725Y-26782382D01*
X43722285Y-26736210D01*
X43703133Y-26669017D01*
X43723348Y-26602135D01*
X43774725Y-26557618D01*
X43775317Y-26557342D01*
X43832734Y-26530568D01*
X44019139Y-26400047D01*
X44180047Y-26239139D01*
X44310568Y-26052734D01*
X44406739Y-25846496D01*
X44465635Y-25626692D01*
X44485468Y-25400000D01*
X44465635Y-25173308D01*
X44447318Y-25104948D01*
X44448981Y-25035103D01*
X44479410Y-24985179D01*
X48482772Y-20981819D01*
X48544095Y-20948334D01*
X48570453Y-20945500D01*
X49585812Y-20945500D01*
X49652851Y-20965185D01*
X49687387Y-20998377D01*
X49799954Y-21159141D01*
X49960858Y-21320045D01*
X49960861Y-21320047D01*
X50147266Y-21450568D01*
X50205865Y-21477893D01*
X50258305Y-21524065D01*
X50277457Y-21591258D01*
X50257242Y-21658139D01*
X50205867Y-21702657D01*
X50147515Y-21729867D01*
X49961179Y-21860342D01*
X49800342Y-22021179D01*
X49669865Y-22207517D01*
X49573734Y-22413673D01*
X49573730Y-22413682D01*
X49521127Y-22609999D01*
X49521128Y-22610000D01*
X50484314Y-22610000D01*
X50472359Y-22621955D01*
X50414835Y-22734852D01*
X50395014Y-22860000D01*
X50414835Y-22985148D01*
X50472359Y-23098045D01*
X50484314Y-23110000D01*
X49521128Y-23110000D01*
X49573730Y-23306317D01*
X49573734Y-23306326D01*
X49669865Y-23512482D01*
X49800342Y-23698820D01*
X49961179Y-23859657D01*
X50147518Y-23990134D01*
X50147520Y-23990135D01*
X50205865Y-24017342D01*
X50258305Y-24063514D01*
X50277457Y-24130707D01*
X50257242Y-24197589D01*
X50205867Y-24242105D01*
X50147268Y-24269431D01*
X50147264Y-24269433D01*
X49960858Y-24399954D01*
X49799954Y-24560858D01*
X49669432Y-24747265D01*
X49669431Y-24747267D01*
X49573261Y-24953502D01*
X49573258Y-24953511D01*
X49514366Y-25173302D01*
X49514364Y-25173313D01*
X49494532Y-25399998D01*
X49494532Y-25400001D01*
X49514364Y-25626686D01*
X49514366Y-25626697D01*
X49573258Y-25846488D01*
X49573261Y-25846497D01*
X49669431Y-26052732D01*
X49669432Y-26052734D01*
X49799954Y-26239141D01*
X49960858Y-26400045D01*
X49960861Y-26400047D01*
X50147266Y-26530568D01*
X50204683Y-26557342D01*
X50205275Y-26557618D01*
X50257714Y-26603791D01*
X50276866Y-26670984D01*
X50256650Y-26737865D01*
X50205275Y-26782382D01*
X50147267Y-26809431D01*
X50147265Y-26809432D01*
X49960858Y-26939954D01*
X49799954Y-27100858D01*
X49669432Y-27287265D01*
X49669431Y-27287267D01*
X49573261Y-27493502D01*
X49573258Y-27493511D01*
X49514366Y-27713302D01*
X49514364Y-27713313D01*
X49503142Y-27841585D01*
X49494532Y-27940000D01*
X49514364Y-28166686D01*
X49514365Y-28166691D01*
X49514366Y-28166697D01*
X49532680Y-28235048D01*
X49531017Y-28304897D01*
X49500586Y-28354821D01*
X49291208Y-28564199D01*
X49278951Y-28574020D01*
X49279134Y-28574241D01*
X49273123Y-28579213D01*
X49225772Y-28629636D01*
X49204889Y-28650519D01*
X49204877Y-28650532D01*
X49200621Y-28656017D01*
X49196837Y-28660447D01*
X49164937Y-28694418D01*
X49164936Y-28694420D01*
X49155284Y-28711976D01*
X49144610Y-28728226D01*
X49132329Y-28744061D01*
X49132324Y-28744068D01*
X49113815Y-28786838D01*
X49111245Y-28792084D01*
X49088803Y-28832906D01*
X49083822Y-28852307D01*
X49077521Y-28870710D01*
X49069562Y-28889102D01*
X49069561Y-28889105D01*
X49062271Y-28935127D01*
X49061087Y-28940846D01*
X49049501Y-28985972D01*
X49049500Y-28985982D01*
X49049500Y-29006016D01*
X49047973Y-29025415D01*
X49044840Y-29045194D01*
X49044840Y-29045195D01*
X49049225Y-29091583D01*
X49049500Y-29097421D01*
X49049500Y-34352255D01*
X49047775Y-34367872D01*
X49048061Y-34367899D01*
X49047326Y-34375665D01*
X49049500Y-34444814D01*
X49049500Y-34474343D01*
X49049501Y-34474360D01*
X49050368Y-34481231D01*
X49050826Y-34487050D01*
X49052290Y-34533624D01*
X49052291Y-34533627D01*
X49057880Y-34552867D01*
X49061824Y-34571911D01*
X49064336Y-34591791D01*
X49081490Y-34635119D01*
X49083382Y-34640647D01*
X49096381Y-34685388D01*
X49106580Y-34702634D01*
X49115138Y-34720103D01*
X49122514Y-34738732D01*
X49149898Y-34776423D01*
X49153106Y-34781307D01*
X49176827Y-34821416D01*
X49176833Y-34821424D01*
X49190990Y-34835580D01*
X49203628Y-34850376D01*
X49215405Y-34866586D01*
X49215406Y-34866587D01*
X49251309Y-34896288D01*
X49255620Y-34900210D01*
X49427201Y-35071791D01*
X49588181Y-35232771D01*
X49621666Y-35294094D01*
X49624500Y-35320452D01*
X49624500Y-36282870D01*
X49624501Y-36282876D01*
X49630908Y-36342483D01*
X49681202Y-36477328D01*
X49681206Y-36477335D01*
X49767452Y-36592544D01*
X49767455Y-36592547D01*
X49882664Y-36678793D01*
X49882671Y-36678797D01*
X50017517Y-36729091D01*
X50017516Y-36729091D01*
X50024444Y-36729835D01*
X50077127Y-36735500D01*
X51522872Y-36735499D01*
X51582483Y-36729091D01*
X51717331Y-36678796D01*
X51832546Y-36592546D01*
X51918796Y-36477331D01*
X51969091Y-36342483D01*
X51975500Y-36282873D01*
X51975499Y-34837128D01*
X51969498Y-34781307D01*
X51969091Y-34777516D01*
X51918797Y-34642671D01*
X51918793Y-34642664D01*
X51832547Y-34527455D01*
X51832544Y-34527452D01*
X51717335Y-34441206D01*
X51717328Y-34441202D01*
X51582482Y-34390908D01*
X51582483Y-34390908D01*
X51522883Y-34384501D01*
X51522881Y-34384500D01*
X51522873Y-34384500D01*
X51522865Y-34384500D01*
X50560453Y-34384500D01*
X50493414Y-34364815D01*
X50472772Y-34348181D01*
X50336819Y-34212228D01*
X50303334Y-34150905D01*
X50300500Y-34124547D01*
X50300500Y-31854136D01*
X50320185Y-31787097D01*
X50372989Y-31741342D01*
X50442147Y-31731398D01*
X50456582Y-31734358D01*
X50573308Y-31765635D01*
X50735230Y-31779801D01*
X50799998Y-31785468D01*
X50800000Y-31785468D01*
X50800002Y-31785468D01*
X50856673Y-31780509D01*
X51026692Y-31765635D01*
X51246496Y-31706739D01*
X51452734Y-31610568D01*
X51639139Y-31480047D01*
X51800047Y-31319139D01*
X51930568Y-31132734D01*
X52026739Y-30926496D01*
X52085635Y-30706692D01*
X52105468Y-30480000D01*
X52085635Y-30253308D01*
X52026739Y-30033504D01*
X51930568Y-29827266D01*
X51800047Y-29640861D01*
X51800045Y-29640858D01*
X51639141Y-29479954D01*
X51452734Y-29349432D01*
X51452728Y-29349429D01*
X51394725Y-29322382D01*
X51342285Y-29276210D01*
X51323133Y-29209017D01*
X51343348Y-29142135D01*
X51394725Y-29097618D01*
X51452734Y-29070568D01*
X51639139Y-28940047D01*
X51800047Y-28779139D01*
X51930568Y-28592734D01*
X52026739Y-28386496D01*
X52085635Y-28166692D01*
X52105468Y-27940000D01*
X52085635Y-27713308D01*
X52026739Y-27493504D01*
X51930568Y-27287266D01*
X51800047Y-27100861D01*
X51800045Y-27100858D01*
X51639141Y-26939954D01*
X51452734Y-26809432D01*
X51452728Y-26809429D01*
X51394725Y-26782382D01*
X51342285Y-26736210D01*
X51323133Y-26669017D01*
X51343348Y-26602135D01*
X51394725Y-26557618D01*
X51395317Y-26557342D01*
X51452734Y-26530568D01*
X51639139Y-26400047D01*
X51800047Y-26239139D01*
X51930568Y-26052734D01*
X52026739Y-25846496D01*
X52085635Y-25626692D01*
X52105468Y-25400000D01*
X52085635Y-25173308D01*
X52026739Y-24953504D01*
X51930568Y-24747266D01*
X51800047Y-24560861D01*
X51800045Y-24560858D01*
X51639141Y-24399954D01*
X51452734Y-24269432D01*
X51452732Y-24269431D01*
X51394725Y-24242382D01*
X51394132Y-24242105D01*
X51341694Y-24195934D01*
X51322542Y-24128740D01*
X51342758Y-24061859D01*
X51394134Y-24017341D01*
X51452484Y-23990132D01*
X51638820Y-23859657D01*
X51799657Y-23698820D01*
X51930134Y-23512482D01*
X52026265Y-23306326D01*
X52026269Y-23306317D01*
X52078872Y-23110000D01*
X51115686Y-23110000D01*
X51127641Y-23098045D01*
X51185165Y-22985148D01*
X51204986Y-22860000D01*
X51185165Y-22734852D01*
X51127641Y-22621955D01*
X51115686Y-22610000D01*
X52078872Y-22610000D01*
X52078872Y-22609999D01*
X52026269Y-22413682D01*
X52026265Y-22413673D01*
X51930134Y-22207517D01*
X51799657Y-22021179D01*
X51638820Y-21860342D01*
X51452482Y-21729865D01*
X51394133Y-21702657D01*
X51341694Y-21656484D01*
X51322542Y-21589291D01*
X51342758Y-21522410D01*
X51394129Y-21477895D01*
X51452734Y-21450568D01*
X51639139Y-21320047D01*
X51800047Y-21159139D01*
X51930568Y-20972734D01*
X52026739Y-20766496D01*
X52085635Y-20546692D01*
X52105468Y-20320000D01*
X52085635Y-20093308D01*
X52026739Y-19873504D01*
X51930568Y-19667266D01*
X51800047Y-19480861D01*
X51800045Y-19480858D01*
X51639141Y-19319954D01*
X51452734Y-19189432D01*
X51452728Y-19189429D01*
X51394725Y-19162382D01*
X51342285Y-19116210D01*
X51323133Y-19049017D01*
X51343348Y-18982135D01*
X51394725Y-18937618D01*
X51452734Y-18910568D01*
X51639139Y-18780047D01*
X51800047Y-18619139D01*
X51930568Y-18432734D01*
X52026739Y-18226496D01*
X52085635Y-18006692D01*
X52105468Y-17780000D01*
X52085635Y-17553308D01*
X52026739Y-17333504D01*
X51930568Y-17127266D01*
X51800047Y-16940861D01*
X51800045Y-16940858D01*
X51639141Y-16779954D01*
X51452734Y-16649432D01*
X51452728Y-16649429D01*
X51394725Y-16622382D01*
X51342285Y-16576210D01*
X51323133Y-16509017D01*
X51343348Y-16442135D01*
X51394725Y-16397618D01*
X51452734Y-16370568D01*
X51639139Y-16240047D01*
X51800047Y-16079139D01*
X51930568Y-15892734D01*
X52026739Y-15686496D01*
X52085635Y-15466692D01*
X52099539Y-15307763D01*
X54025787Y-15307763D01*
X54055413Y-15577013D01*
X54055415Y-15577024D01*
X54123926Y-15839082D01*
X54123928Y-15839088D01*
X54229870Y-16088390D01*
X54338491Y-16266372D01*
X54370979Y-16319605D01*
X54370986Y-16319615D01*
X54544253Y-16527819D01*
X54544259Y-16527824D01*
X54611164Y-16587771D01*
X54745998Y-16708582D01*
X54971910Y-16858044D01*
X55217176Y-16973020D01*
X55217183Y-16973022D01*
X55217185Y-16973023D01*
X55476557Y-17051057D01*
X55476564Y-17051058D01*
X55476569Y-17051060D01*
X55744561Y-17090500D01*
X55744566Y-17090500D01*
X55947636Y-17090500D01*
X55999133Y-17086730D01*
X56150156Y-17075677D01*
X56262758Y-17050593D01*
X56414546Y-17016782D01*
X56414548Y-17016781D01*
X56414553Y-17016780D01*
X56667558Y-16920014D01*
X56903777Y-16787441D01*
X57118177Y-16621888D01*
X57306186Y-16426881D01*
X57463799Y-16206579D01*
X57560401Y-16018687D01*
X57587649Y-15965690D01*
X57587651Y-15965684D01*
X57587656Y-15965675D01*
X57675118Y-15709305D01*
X57724319Y-15442933D01*
X57734212Y-15172235D01*
X57704586Y-14902982D01*
X57636072Y-14640912D01*
X57530130Y-14391610D01*
X57389018Y-14160390D01*
X57346610Y-14109431D01*
X57215746Y-13952180D01*
X57215740Y-13952175D01*
X57014002Y-13771418D01*
X56788092Y-13621957D01*
X56788090Y-13621956D01*
X56542824Y-13506980D01*
X56542819Y-13506978D01*
X56542814Y-13506976D01*
X56283442Y-13428942D01*
X56283428Y-13428939D01*
X56167791Y-13411921D01*
X56015439Y-13389500D01*
X55812369Y-13389500D01*
X55812364Y-13389500D01*
X55609844Y-13404323D01*
X55609831Y-13404325D01*
X55345453Y-13463217D01*
X55345446Y-13463220D01*
X55092439Y-13559987D01*
X54856226Y-13692557D01*
X54641822Y-13858112D01*
X54453822Y-14053109D01*
X54453816Y-14053116D01*
X54296202Y-14273419D01*
X54296199Y-14273424D01*
X54172350Y-14514309D01*
X54172343Y-14514327D01*
X54084884Y-14770685D01*
X54084881Y-14770699D01*
X54060449Y-14902975D01*
X54040070Y-15013308D01*
X54035681Y-15037068D01*
X54035680Y-15037075D01*
X54025787Y-15307763D01*
X52099539Y-15307763D01*
X52105468Y-15240000D01*
X52085635Y-15013308D01*
X52026739Y-14793504D01*
X51930568Y-14587266D01*
X51800047Y-14400861D01*
X51800045Y-14400858D01*
X51639141Y-14239954D01*
X51452734Y-14109432D01*
X51452732Y-14109431D01*
X51246497Y-14013261D01*
X51246488Y-14013258D01*
X51026697Y-13954366D01*
X51026693Y-13954365D01*
X51026692Y-13954365D01*
X51026691Y-13954364D01*
X51026686Y-13954364D01*
X50800002Y-13934532D01*
X50799998Y-13934532D01*
X50573313Y-13954364D01*
X50573302Y-13954366D01*
X50353511Y-14013258D01*
X50353502Y-14013261D01*
X50147267Y-14109431D01*
X50147265Y-14109432D01*
X49960858Y-14239954D01*
X49799954Y-14400858D01*
X49669432Y-14587265D01*
X49669431Y-14587267D01*
X49573261Y-14793502D01*
X49573258Y-14793511D01*
X49514366Y-15013302D01*
X49514364Y-15013313D01*
X49494532Y-15239998D01*
X49494532Y-15240001D01*
X49514364Y-15466686D01*
X49514366Y-15466697D01*
X49573258Y-15686488D01*
X49573261Y-15686497D01*
X49669431Y-15892732D01*
X49669432Y-15892734D01*
X49799954Y-16079141D01*
X49960858Y-16240045D01*
X49960861Y-16240047D01*
X50147266Y-16370568D01*
X50205275Y-16397618D01*
X50257714Y-16443791D01*
X50276866Y-16510984D01*
X50256650Y-16577865D01*
X50205275Y-16622382D01*
X50147267Y-16649431D01*
X50147265Y-16649432D01*
X49960858Y-16779954D01*
X49799954Y-16940858D01*
X49669432Y-17127265D01*
X49669431Y-17127267D01*
X49573261Y-17333502D01*
X49573258Y-17333511D01*
X49514366Y-17553302D01*
X49514364Y-17553313D01*
X49494532Y-17779998D01*
X49494532Y-17780001D01*
X49514364Y-18006686D01*
X49514366Y-18006697D01*
X49573258Y-18226488D01*
X49573261Y-18226497D01*
X49669431Y-18432732D01*
X49669432Y-18432734D01*
X49799954Y-18619141D01*
X49960858Y-18780045D01*
X49960861Y-18780047D01*
X50147266Y-18910568D01*
X50205275Y-18937618D01*
X50257714Y-18983791D01*
X50276866Y-19050984D01*
X50256650Y-19117865D01*
X50205275Y-19162382D01*
X50147267Y-19189431D01*
X50147265Y-19189432D01*
X49960858Y-19319954D01*
X49799954Y-19480858D01*
X49687387Y-19641623D01*
X49632811Y-19685248D01*
X49585812Y-19694500D01*
X48342743Y-19694500D01*
X48327122Y-19692775D01*
X48327096Y-19693061D01*
X48319334Y-19692327D01*
X48319333Y-19692327D01*
X48250186Y-19694500D01*
X48220649Y-19694500D01*
X48213766Y-19695369D01*
X48207949Y-19695826D01*
X48161373Y-19697290D01*
X48142129Y-19702881D01*
X48123079Y-19706825D01*
X48103211Y-19709334D01*
X48059884Y-19726488D01*
X48054358Y-19728379D01*
X48009614Y-19741379D01*
X48009610Y-19741381D01*
X47992366Y-19751579D01*
X47974905Y-19760133D01*
X47956274Y-19767510D01*
X47956262Y-19767517D01*
X47918570Y-19794902D01*
X47913687Y-19798109D01*
X47873580Y-19821829D01*
X47859414Y-19835995D01*
X47844624Y-19848627D01*
X47828414Y-19860404D01*
X47828411Y-19860407D01*
X47798710Y-19896309D01*
X47794777Y-19900631D01*
X44692818Y-23002589D01*
X44631495Y-23036074D01*
X44561803Y-23031090D01*
X44505870Y-22989218D01*
X44481453Y-22923754D01*
X44481608Y-22904109D01*
X44485468Y-22860000D01*
X44465635Y-22633308D01*
X44406739Y-22413504D01*
X44310568Y-22207266D01*
X44180047Y-22020861D01*
X44180045Y-22020858D01*
X44019141Y-21859954D01*
X43832734Y-21729432D01*
X43832728Y-21729429D01*
X43774725Y-21702382D01*
X43722285Y-21656210D01*
X43703133Y-21589017D01*
X43723348Y-21522135D01*
X43774725Y-21477618D01*
X43832734Y-21450568D01*
X44019139Y-21320047D01*
X44180047Y-21159139D01*
X44310568Y-20972734D01*
X44406739Y-20766496D01*
X44465635Y-20546692D01*
X44485468Y-20320000D01*
X44465635Y-20093308D01*
X44406739Y-19873504D01*
X44310568Y-19667266D01*
X44180047Y-19480861D01*
X44180045Y-19480858D01*
X44019141Y-19319954D01*
X43832734Y-19189432D01*
X43832728Y-19189429D01*
X43774725Y-19162382D01*
X43722285Y-19116210D01*
X43703133Y-19049017D01*
X43723348Y-18982135D01*
X43774725Y-18937618D01*
X43832734Y-18910568D01*
X44019139Y-18780047D01*
X44180047Y-18619139D01*
X44310568Y-18432734D01*
X44406739Y-18226496D01*
X44465635Y-18006692D01*
X44485468Y-17780000D01*
X44465635Y-17553308D01*
X44406739Y-17333504D01*
X44310568Y-17127266D01*
X44180047Y-16940861D01*
X44180045Y-16940858D01*
X44019143Y-16779956D01*
X43994536Y-16762726D01*
X43950912Y-16708149D01*
X43943719Y-16638650D01*
X43975241Y-16576296D01*
X44035471Y-16540882D01*
X44052404Y-16537861D01*
X44087483Y-16534091D01*
X44222331Y-16483796D01*
X44337546Y-16397546D01*
X44423796Y-16282331D01*
X44474091Y-16147483D01*
X44480500Y-16087873D01*
X44480499Y-14392128D01*
X44474091Y-14332517D01*
X44439567Y-14239954D01*
X44423797Y-14197671D01*
X44423793Y-14197664D01*
X44337547Y-14082455D01*
X44337544Y-14082452D01*
X44222335Y-13996206D01*
X44222328Y-13996202D01*
X44087482Y-13945908D01*
X44087483Y-13945908D01*
X44027883Y-13939501D01*
X44027881Y-13939500D01*
X44027873Y-13939500D01*
X44027864Y-13939500D01*
X42332129Y-13939500D01*
X42332123Y-13939501D01*
X42272516Y-13945908D01*
X42137671Y-13996202D01*
X42137664Y-13996206D01*
X42022455Y-14082452D01*
X42022452Y-14082455D01*
X41936206Y-14197664D01*
X41936202Y-14197671D01*
X41885908Y-14332517D01*
X41879501Y-14392116D01*
X41879501Y-14392123D01*
X41879500Y-14392135D01*
X41879500Y-16087870D01*
X41879501Y-16087876D01*
X41885908Y-16147483D01*
X41936202Y-16282328D01*
X41936206Y-16282335D01*
X42022452Y-16397544D01*
X42022455Y-16397547D01*
X42137664Y-16483793D01*
X42137671Y-16483797D01*
X42182618Y-16500561D01*
X42272517Y-16534091D01*
X42307596Y-16537862D01*
X42372144Y-16564599D01*
X42411993Y-16621991D01*
X42414488Y-16691816D01*
X42378836Y-16751905D01*
X42365464Y-16762725D01*
X42340858Y-16779954D01*
X42179954Y-16940858D01*
X42049432Y-17127265D01*
X42049431Y-17127267D01*
X41953261Y-17333502D01*
X41953258Y-17333511D01*
X41894366Y-17553302D01*
X41894364Y-17553313D01*
X41874532Y-17779998D01*
X41874532Y-17780001D01*
X41894364Y-18006686D01*
X41894366Y-18006697D01*
X41953258Y-18226488D01*
X41953261Y-18226497D01*
X42049431Y-18432732D01*
X42049432Y-18432734D01*
X42179954Y-18619141D01*
X42340858Y-18780045D01*
X42340861Y-18780047D01*
X42527266Y-18910568D01*
X42585275Y-18937618D01*
X42637714Y-18983791D01*
X42656866Y-19050984D01*
X42636650Y-19117865D01*
X42585275Y-19162382D01*
X42527267Y-19189431D01*
X42527265Y-19189432D01*
X42340858Y-19319954D01*
X42179954Y-19480858D01*
X42049432Y-19667265D01*
X42049431Y-19667267D01*
X41953261Y-19873502D01*
X41953258Y-19873511D01*
X41894366Y-20093302D01*
X41894364Y-20093313D01*
X41874532Y-20319998D01*
X41874532Y-20320001D01*
X41894364Y-20546686D01*
X41894366Y-20546697D01*
X41953258Y-20766488D01*
X41953261Y-20766497D01*
X42049431Y-20972732D01*
X42049432Y-20972734D01*
X42179954Y-21159141D01*
X42340858Y-21320045D01*
X42340861Y-21320047D01*
X42527266Y-21450568D01*
X42585275Y-21477618D01*
X42637714Y-21523791D01*
X42656866Y-21590984D01*
X42636650Y-21657865D01*
X42585275Y-21702382D01*
X42527267Y-21729431D01*
X42527265Y-21729432D01*
X42340858Y-21859954D01*
X42179954Y-22020858D01*
X42049432Y-22207265D01*
X42049431Y-22207267D01*
X41953261Y-22413502D01*
X41953258Y-22413511D01*
X41894366Y-22633302D01*
X41894364Y-22633313D01*
X41874532Y-22859998D01*
X41874532Y-22860001D01*
X41894364Y-23086686D01*
X41894366Y-23086697D01*
X41953258Y-23306488D01*
X41953261Y-23306497D01*
X42049431Y-23512732D01*
X42049432Y-23512734D01*
X42179954Y-23699141D01*
X42340858Y-23860045D01*
X42340861Y-23860047D01*
X42527266Y-23990568D01*
X42584681Y-24017341D01*
X42585275Y-24017618D01*
X42637714Y-24063791D01*
X42656866Y-24130984D01*
X42636650Y-24197865D01*
X42585275Y-24242382D01*
X42527267Y-24269431D01*
X42527265Y-24269432D01*
X42340858Y-24399954D01*
X42179954Y-24560858D01*
X42049432Y-24747265D01*
X42049431Y-24747267D01*
X41953261Y-24953502D01*
X41953258Y-24953511D01*
X41894366Y-25173302D01*
X41894364Y-25173313D01*
X41874532Y-25399998D01*
X41874532Y-25400001D01*
X41894364Y-25626686D01*
X41894366Y-25626697D01*
X41953258Y-25846488D01*
X41953261Y-25846497D01*
X42049431Y-26052732D01*
X42049432Y-26052734D01*
X42179954Y-26239141D01*
X42340858Y-26400045D01*
X42340861Y-26400047D01*
X42527266Y-26530568D01*
X42584683Y-26557342D01*
X42585275Y-26557618D01*
X42637714Y-26603791D01*
X42656866Y-26670984D01*
X42636650Y-26737865D01*
X42585275Y-26782382D01*
X42527267Y-26809431D01*
X42527265Y-26809432D01*
X42340858Y-26939954D01*
X42179954Y-27100858D01*
X42049432Y-27287265D01*
X42049431Y-27287267D01*
X41953261Y-27493502D01*
X41953258Y-27493511D01*
X41894366Y-27713302D01*
X41894364Y-27713313D01*
X41874532Y-27939998D01*
X41874532Y-27940001D01*
X41894364Y-28166686D01*
X41894366Y-28166697D01*
X41953258Y-28386488D01*
X41953261Y-28386497D01*
X42049431Y-28592732D01*
X42049432Y-28592734D01*
X42179954Y-28779141D01*
X42340858Y-28940045D01*
X42340861Y-28940047D01*
X42527266Y-29070568D01*
X42585275Y-29097618D01*
X42637714Y-29143791D01*
X42656866Y-29210984D01*
X42636650Y-29277865D01*
X42585275Y-29322382D01*
X42527267Y-29349431D01*
X42527265Y-29349432D01*
X42340858Y-29479954D01*
X42179954Y-29640858D01*
X42049432Y-29827265D01*
X42049431Y-29827267D01*
X41953261Y-30033502D01*
X41953258Y-30033511D01*
X41894366Y-30253302D01*
X41894364Y-30253313D01*
X41874532Y-30479998D01*
X41874532Y-30480001D01*
X39405468Y-30480001D01*
X39405468Y-30480000D01*
X39385635Y-30253308D01*
X39367318Y-30184948D01*
X39368981Y-30115103D01*
X39399410Y-30065179D01*
X40878788Y-28585801D01*
X40891042Y-28575986D01*
X40890859Y-28575764D01*
X40896866Y-28570792D01*
X40896877Y-28570786D01*
X40927775Y-28537882D01*
X40944227Y-28520364D01*
X40954671Y-28509918D01*
X40965120Y-28499471D01*
X40969379Y-28493978D01*
X40973152Y-28489561D01*
X41005062Y-28455582D01*
X41014713Y-28438024D01*
X41025396Y-28421761D01*
X41037673Y-28405936D01*
X41056185Y-28363153D01*
X41058738Y-28357941D01*
X41081197Y-28317092D01*
X41086180Y-28297680D01*
X41092481Y-28279280D01*
X41100437Y-28260896D01*
X41107729Y-28214852D01*
X41108906Y-28209171D01*
X41120500Y-28164019D01*
X41120500Y-28143983D01*
X41122027Y-28124582D01*
X41125160Y-28104804D01*
X41120775Y-28058415D01*
X41120500Y-28052577D01*
X41120500Y-16447737D01*
X41122224Y-16432123D01*
X41121938Y-16432096D01*
X41122672Y-16424333D01*
X41120500Y-16355203D01*
X41120500Y-16325651D01*
X41120500Y-16325650D01*
X41119629Y-16318759D01*
X41119172Y-16312945D01*
X41118210Y-16282335D01*
X41117709Y-16266373D01*
X41112122Y-16247144D01*
X41108174Y-16228084D01*
X41105664Y-16208208D01*
X41088507Y-16164875D01*
X41086619Y-16159359D01*
X41073619Y-16114612D01*
X41063418Y-16097363D01*
X41054860Y-16079894D01*
X41047486Y-16061268D01*
X41047483Y-16061264D01*
X41047483Y-16061263D01*
X41020098Y-16023571D01*
X41016890Y-16018687D01*
X40993172Y-15978582D01*
X40993163Y-15978571D01*
X40979005Y-15964413D01*
X40966370Y-15949620D01*
X40954593Y-15933412D01*
X40918693Y-15903713D01*
X40914381Y-15899790D01*
X40669413Y-15654822D01*
X40635928Y-15593499D01*
X40637319Y-15535048D01*
X40655635Y-15466692D01*
X40675468Y-15240000D01*
X40655635Y-15013308D01*
X40596739Y-14793504D01*
X40500568Y-14587266D01*
X40370047Y-14400861D01*
X40370045Y-14400858D01*
X40209141Y-14239954D01*
X40022734Y-14109432D01*
X40022732Y-14109431D01*
X39816497Y-14013261D01*
X39816488Y-14013258D01*
X39596697Y-13954366D01*
X39596693Y-13954365D01*
X39596692Y-13954365D01*
X39596691Y-13954364D01*
X39596686Y-13954364D01*
X39370002Y-13934532D01*
X39369998Y-13934532D01*
X39143313Y-13954364D01*
X39143302Y-13954366D01*
X38923511Y-14013258D01*
X38923502Y-14013261D01*
X38717267Y-14109431D01*
X38717265Y-14109432D01*
X38530858Y-14239954D01*
X38369954Y-14400858D01*
X38239432Y-14587265D01*
X38239431Y-14587267D01*
X38143261Y-14793502D01*
X38143258Y-14793511D01*
X38084366Y-15013302D01*
X38084364Y-15013313D01*
X38064532Y-15239998D01*
X38064532Y-15240001D01*
X38084364Y-15466686D01*
X38084366Y-15466697D01*
X38143258Y-15686488D01*
X38143261Y-15686497D01*
X38239431Y-15892732D01*
X38239432Y-15892734D01*
X38369954Y-16079141D01*
X38530858Y-16240045D01*
X38530861Y-16240047D01*
X38717266Y-16370568D01*
X38923504Y-16466739D01*
X39143308Y-16525635D01*
X39283052Y-16537861D01*
X39369998Y-16545468D01*
X39370000Y-16545468D01*
X39370002Y-16545468D01*
X39439220Y-16539412D01*
X39596692Y-16525635D01*
X39665047Y-16507319D01*
X39734896Y-16508982D01*
X39784820Y-16539412D01*
X39833180Y-16587771D01*
X39866666Y-16649094D01*
X39869500Y-16675453D01*
X39869500Y-18945863D01*
X39849815Y-19012902D01*
X39797011Y-19058657D01*
X39727853Y-19068601D01*
X39713407Y-19065638D01*
X39596697Y-19034366D01*
X39596693Y-19034365D01*
X39596692Y-19034365D01*
X39596691Y-19034364D01*
X39596686Y-19034364D01*
X39370002Y-19014532D01*
X39369998Y-19014532D01*
X39143313Y-19034364D01*
X39143302Y-19034366D01*
X38923511Y-19093258D01*
X38923502Y-19093261D01*
X38717267Y-19189431D01*
X38717265Y-19189432D01*
X38530858Y-19319954D01*
X38369953Y-19480859D01*
X38258907Y-19639451D01*
X38204330Y-19683076D01*
X38161228Y-19692267D01*
X38094842Y-19694353D01*
X38090186Y-19694500D01*
X38060649Y-19694500D01*
X38053766Y-19695369D01*
X38047949Y-19695826D01*
X38001373Y-19697290D01*
X37982129Y-19702881D01*
X37963079Y-19706825D01*
X37943211Y-19709334D01*
X37899884Y-19726488D01*
X37894358Y-19728379D01*
X37849614Y-19741379D01*
X37849610Y-19741381D01*
X37832366Y-19751579D01*
X37814905Y-19760133D01*
X37796274Y-19767510D01*
X37796262Y-19767517D01*
X37758570Y-19794902D01*
X37753687Y-19798109D01*
X37713580Y-19821829D01*
X37699414Y-19835995D01*
X37684624Y-19848627D01*
X37668414Y-19860404D01*
X37668411Y-19860407D01*
X37638710Y-19896309D01*
X37634777Y-19900631D01*
X33434821Y-24100586D01*
X33373498Y-24134071D01*
X33315048Y-24132680D01*
X33246697Y-24114366D01*
X33246693Y-24114365D01*
X33246692Y-24114365D01*
X33133346Y-24104448D01*
X33020001Y-24094532D01*
X33019998Y-24094532D01*
X32793313Y-24114364D01*
X32793302Y-24114366D01*
X32573511Y-24173258D01*
X32573504Y-24173260D01*
X32573504Y-24173261D01*
X32567961Y-24175846D01*
X32551905Y-24183333D01*
X32482827Y-24193825D01*
X32419043Y-24165305D01*
X32380804Y-24106829D01*
X32375500Y-24070951D01*
X32375500Y-21534188D01*
X32395185Y-21467149D01*
X32428377Y-21432613D01*
X32476836Y-21398681D01*
X32589139Y-21320047D01*
X32750047Y-21159139D01*
X32880568Y-20972734D01*
X32976739Y-20766496D01*
X33035635Y-20546692D01*
X33055468Y-20320000D01*
X33035635Y-20093308D01*
X32976739Y-19873504D01*
X32880568Y-19667266D01*
X32750047Y-19480861D01*
X32750045Y-19480858D01*
X32589140Y-19319953D01*
X32428377Y-19207386D01*
X32384752Y-19152809D01*
X32375500Y-19105811D01*
X32375500Y-16454188D01*
X32395185Y-16387149D01*
X32428377Y-16352613D01*
X32528745Y-16282335D01*
X32589139Y-16240047D01*
X32750047Y-16079139D01*
X32880568Y-15892734D01*
X32976739Y-15686496D01*
X33035635Y-15466692D01*
X33055468Y-15240000D01*
X33035635Y-15013308D01*
X32976739Y-14793504D01*
X32880568Y-14587266D01*
X32750047Y-14400861D01*
X32750045Y-14400858D01*
X32589141Y-14239954D01*
X32402734Y-14109432D01*
X32402732Y-14109431D01*
X32196497Y-14013261D01*
X32196488Y-14013258D01*
X31976697Y-13954366D01*
X31976693Y-13954365D01*
X31976692Y-13954365D01*
X31976691Y-13954364D01*
X31976686Y-13954364D01*
X31750002Y-13934532D01*
X31749998Y-13934532D01*
X31523313Y-13954364D01*
X31523302Y-13954366D01*
X31303511Y-14013258D01*
X31303502Y-14013261D01*
X31097267Y-14109431D01*
X31097265Y-14109432D01*
X30910858Y-14239954D01*
X30749954Y-14400858D01*
X30619432Y-14587265D01*
X30619431Y-14587267D01*
X30523261Y-14793502D01*
X30523258Y-14793511D01*
X30464366Y-15013302D01*
X30464364Y-15013313D01*
X30444532Y-15239998D01*
X30444532Y-15240001D01*
X30464364Y-15466686D01*
X30464366Y-15466697D01*
X30523258Y-15686488D01*
X30523261Y-15686497D01*
X30619431Y-15892732D01*
X30619432Y-15892734D01*
X30749954Y-16079141D01*
X30910858Y-16240045D01*
X31071623Y-16352613D01*
X31115248Y-16407189D01*
X31124500Y-16454188D01*
X31124500Y-19105811D01*
X31104815Y-19172850D01*
X31071623Y-19207386D01*
X30910859Y-19319953D01*
X30749954Y-19480858D01*
X30619432Y-19667265D01*
X30619431Y-19667267D01*
X30523261Y-19873502D01*
X30523258Y-19873511D01*
X30464366Y-20093302D01*
X30464364Y-20093313D01*
X30444532Y-20319998D01*
X30444532Y-20320001D01*
X30464364Y-20546686D01*
X30464366Y-20546697D01*
X30523258Y-20766488D01*
X30523261Y-20766497D01*
X30619431Y-20972732D01*
X30619432Y-20972734D01*
X30749954Y-21159141D01*
X30910858Y-21320045D01*
X31071623Y-21432613D01*
X31115248Y-21487189D01*
X31124500Y-21534188D01*
X31124500Y-23819546D01*
X31104815Y-23886585D01*
X31088181Y-23907227D01*
X29452268Y-25543138D01*
X29390945Y-25576623D01*
X29321253Y-25571639D01*
X29265320Y-25529767D01*
X29240903Y-25464303D01*
X29241059Y-25444648D01*
X29244966Y-25399998D01*
X29244966Y-25399997D01*
X29225141Y-25173400D01*
X29225139Y-25173389D01*
X29166269Y-24953682D01*
X29166265Y-24953673D01*
X29070133Y-24747516D01*
X29070131Y-24747512D01*
X29019026Y-24674526D01*
X29019025Y-24674526D01*
X28337953Y-25355598D01*
X28325165Y-25274852D01*
X28267641Y-25161955D01*
X28178045Y-25072359D01*
X28065148Y-25014835D01*
X27984400Y-25002046D01*
X28665472Y-24320974D01*
X28665471Y-24320973D01*
X28592483Y-24269866D01*
X28592481Y-24269865D01*
X28534133Y-24242657D01*
X28481694Y-24196484D01*
X28462542Y-24129291D01*
X28482758Y-24062410D01*
X28534129Y-24017895D01*
X28592734Y-23990568D01*
X28779139Y-23860047D01*
X28940047Y-23699139D01*
X29070568Y-23512734D01*
X29166739Y-23306496D01*
X29225635Y-23086692D01*
X29245468Y-22860000D01*
X29225635Y-22633308D01*
X29166739Y-22413504D01*
X29070568Y-22207266D01*
X28940047Y-22020861D01*
X28940045Y-22020858D01*
X28779141Y-21859954D01*
X28592734Y-21729432D01*
X28592728Y-21729429D01*
X28534725Y-21702382D01*
X28482285Y-21656210D01*
X28463133Y-21589017D01*
X28483348Y-21522135D01*
X28534725Y-21477618D01*
X28592734Y-21450568D01*
X28779139Y-21320047D01*
X28940047Y-21159139D01*
X29070568Y-20972734D01*
X29166739Y-20766496D01*
X29225635Y-20546692D01*
X29245468Y-20320000D01*
X29225635Y-20093308D01*
X29166739Y-19873504D01*
X29070568Y-19667266D01*
X28940047Y-19480861D01*
X28940045Y-19480858D01*
X28779141Y-19319954D01*
X28592734Y-19189432D01*
X28592728Y-19189429D01*
X28534725Y-19162382D01*
X28482285Y-19116210D01*
X28463133Y-19049017D01*
X28483348Y-18982135D01*
X28534725Y-18937618D01*
X28592734Y-18910568D01*
X28779139Y-18780047D01*
X28940047Y-18619139D01*
X29070568Y-18432734D01*
X29166739Y-18226496D01*
X29225635Y-18006692D01*
X29245468Y-17780000D01*
X29225635Y-17553308D01*
X29166739Y-17333504D01*
X29070568Y-17127266D01*
X28940047Y-16940861D01*
X28940045Y-16940858D01*
X28779141Y-16779954D01*
X28592734Y-16649432D01*
X28592728Y-16649429D01*
X28534725Y-16622382D01*
X28482285Y-16576210D01*
X28463133Y-16509017D01*
X28483348Y-16442135D01*
X28534725Y-16397618D01*
X28592734Y-16370568D01*
X28779139Y-16240047D01*
X28940047Y-16079139D01*
X29070568Y-15892734D01*
X29166739Y-15686496D01*
X29225635Y-15466692D01*
X29245468Y-15240000D01*
X29225635Y-15013308D01*
X29166739Y-14793504D01*
X29070568Y-14587266D01*
X28940047Y-14400861D01*
X28940045Y-14400858D01*
X28779141Y-14239954D01*
X28592734Y-14109432D01*
X28592732Y-14109431D01*
X28386497Y-14013261D01*
X28386488Y-14013258D01*
X28166697Y-13954366D01*
X28166693Y-13954365D01*
X28166692Y-13954365D01*
X28166691Y-13954364D01*
X28166686Y-13954364D01*
X27940002Y-13934532D01*
X27939998Y-13934532D01*
X27713313Y-13954364D01*
X27713302Y-13954366D01*
X27493511Y-14013258D01*
X27493502Y-14013261D01*
X27287267Y-14109431D01*
X27287265Y-14109432D01*
X27100858Y-14239954D01*
X26939954Y-14400858D01*
X26809432Y-14587265D01*
X26809431Y-14587267D01*
X26713261Y-14793502D01*
X26713258Y-14793511D01*
X26654366Y-15013302D01*
X26654364Y-15013313D01*
X26634532Y-15239998D01*
X26634532Y-15240001D01*
X26654364Y-15466686D01*
X26654366Y-15466697D01*
X26713258Y-15686488D01*
X26713261Y-15686497D01*
X26809431Y-15892732D01*
X26809432Y-15892734D01*
X26939954Y-16079141D01*
X27100858Y-16240045D01*
X27100861Y-16240047D01*
X27287266Y-16370568D01*
X27345275Y-16397618D01*
X27397714Y-16443791D01*
X27416866Y-16510984D01*
X27396650Y-16577865D01*
X27345275Y-16622382D01*
X27287267Y-16649431D01*
X27287265Y-16649432D01*
X27100858Y-16779954D01*
X26939954Y-16940858D01*
X26809432Y-17127265D01*
X26809431Y-17127267D01*
X26713261Y-17333502D01*
X26713258Y-17333511D01*
X26654366Y-17553302D01*
X26654364Y-17553313D01*
X26634532Y-17779998D01*
X26634532Y-17780001D01*
X26654364Y-18006686D01*
X26654366Y-18006697D01*
X26713258Y-18226488D01*
X26713261Y-18226497D01*
X26809431Y-18432732D01*
X26809432Y-18432734D01*
X26939954Y-18619141D01*
X27100858Y-18780045D01*
X27100861Y-18780047D01*
X27287266Y-18910568D01*
X27345275Y-18937618D01*
X27397714Y-18983791D01*
X27416866Y-19050984D01*
X27396650Y-19117865D01*
X27345275Y-19162382D01*
X27287267Y-19189431D01*
X27287265Y-19189432D01*
X27100858Y-19319954D01*
X26939954Y-19480858D01*
X26809432Y-19667265D01*
X26809431Y-19667267D01*
X26713261Y-19873502D01*
X26713258Y-19873511D01*
X26654366Y-20093302D01*
X26654364Y-20093313D01*
X26634532Y-20319998D01*
X26634532Y-20320001D01*
X26654364Y-20546686D01*
X26654366Y-20546697D01*
X26713258Y-20766488D01*
X26713261Y-20766497D01*
X26809431Y-20972732D01*
X26809432Y-20972734D01*
X26939954Y-21159141D01*
X27100858Y-21320045D01*
X27100861Y-21320047D01*
X27287266Y-21450568D01*
X27345275Y-21477618D01*
X27397714Y-21523791D01*
X27416866Y-21590984D01*
X27396650Y-21657865D01*
X27345275Y-21702382D01*
X27287267Y-21729431D01*
X27287265Y-21729432D01*
X27100858Y-21859954D01*
X26939954Y-22020858D01*
X26809432Y-22207265D01*
X26809431Y-22207267D01*
X26713261Y-22413502D01*
X26713258Y-22413511D01*
X26654366Y-22633302D01*
X26654364Y-22633313D01*
X26634532Y-22859998D01*
X26634532Y-22860001D01*
X26654364Y-23086686D01*
X26654366Y-23086697D01*
X26713258Y-23306488D01*
X26713261Y-23306497D01*
X26809431Y-23512732D01*
X26809432Y-23512734D01*
X26939954Y-23699141D01*
X27100858Y-23860045D01*
X27100861Y-23860047D01*
X27287266Y-23990568D01*
X27345865Y-24017893D01*
X27398305Y-24064065D01*
X27417457Y-24131258D01*
X27397242Y-24198139D01*
X27345867Y-24242657D01*
X27287511Y-24269869D01*
X27214527Y-24320972D01*
X27214526Y-24320973D01*
X27895600Y-25002046D01*
X27814852Y-25014835D01*
X27701955Y-25072359D01*
X27612359Y-25161955D01*
X27554835Y-25274852D01*
X27542046Y-25355599D01*
X26860973Y-24674526D01*
X26860972Y-24674527D01*
X26809868Y-24747513D01*
X26713734Y-24953673D01*
X26713730Y-24953682D01*
X26654860Y-25173389D01*
X26654858Y-25173400D01*
X26635034Y-25399997D01*
X26635034Y-25400002D01*
X26654858Y-25626599D01*
X26654860Y-25626610D01*
X26713730Y-25846317D01*
X26713734Y-25846326D01*
X26809865Y-26052481D01*
X26809866Y-26052483D01*
X26860973Y-26125471D01*
X26860974Y-26125472D01*
X27542046Y-25444399D01*
X27554835Y-25525148D01*
X27612359Y-25638045D01*
X27701955Y-25727641D01*
X27814852Y-25785165D01*
X27895599Y-25797953D01*
X27214526Y-26479025D01*
X27214526Y-26479026D01*
X27287512Y-26530131D01*
X27287520Y-26530135D01*
X27345865Y-26557342D01*
X27398305Y-26603514D01*
X27417457Y-26670707D01*
X27397242Y-26737589D01*
X27345867Y-26782105D01*
X27287268Y-26809431D01*
X27287264Y-26809433D01*
X27100858Y-26939954D01*
X26939954Y-27100858D01*
X26809432Y-27287265D01*
X26809431Y-27287267D01*
X26713261Y-27493502D01*
X26713258Y-27493511D01*
X26654366Y-27713302D01*
X26654364Y-27713313D01*
X26634532Y-27939998D01*
X26634532Y-27940001D01*
X26654364Y-28166686D01*
X26654366Y-28166697D01*
X26713258Y-28386488D01*
X26713261Y-28386497D01*
X26809431Y-28592732D01*
X26809432Y-28592734D01*
X26939954Y-28779141D01*
X27100858Y-28940045D01*
X27100861Y-28940047D01*
X27287266Y-29070568D01*
X27345275Y-29097618D01*
X27397714Y-29143791D01*
X27416866Y-29210984D01*
X27396650Y-29277865D01*
X27345275Y-29322382D01*
X27287267Y-29349431D01*
X27287265Y-29349432D01*
X27100858Y-29479954D01*
X26939954Y-29640858D01*
X26809432Y-29827265D01*
X26809431Y-29827267D01*
X26713261Y-30033502D01*
X26713258Y-30033511D01*
X26654366Y-30253302D01*
X26654364Y-30253313D01*
X26634532Y-30479998D01*
X26634532Y-30480001D01*
X26654364Y-30706686D01*
X26654366Y-30706697D01*
X26713258Y-30926488D01*
X26713261Y-30926497D01*
X26809431Y-31132732D01*
X26809432Y-31132734D01*
X26939954Y-31319141D01*
X27100858Y-31480045D01*
X27100861Y-31480047D01*
X27287266Y-31610568D01*
X27345275Y-31637618D01*
X27397714Y-31683791D01*
X27416866Y-31750984D01*
X27396650Y-31817865D01*
X27345275Y-31862382D01*
X27287267Y-31889431D01*
X27287265Y-31889432D01*
X27100858Y-32019954D01*
X26939954Y-32180858D01*
X26809432Y-32367265D01*
X26809431Y-32367267D01*
X26713261Y-32573502D01*
X26713258Y-32573511D01*
X26654366Y-32793302D01*
X26654364Y-32793313D01*
X26634532Y-33019998D01*
X26634532Y-33020001D01*
X20724986Y-33020001D01*
X20724986Y-33020000D01*
X20705165Y-32894852D01*
X20647641Y-32781955D01*
X20635686Y-32770000D01*
X21598872Y-32770000D01*
X21598872Y-32769999D01*
X21546269Y-32573682D01*
X21546265Y-32573673D01*
X21450134Y-32367517D01*
X21319657Y-32181179D01*
X21158820Y-32020342D01*
X20972482Y-31889865D01*
X20914133Y-31862657D01*
X20861694Y-31816484D01*
X20842542Y-31749291D01*
X20862758Y-31682410D01*
X20914129Y-31637895D01*
X20972734Y-31610568D01*
X21159139Y-31480047D01*
X21320047Y-31319139D01*
X21450568Y-31132734D01*
X21546739Y-30926496D01*
X21605635Y-30706692D01*
X21625468Y-30480000D01*
X21605635Y-30253308D01*
X21546739Y-30033504D01*
X21450568Y-29827266D01*
X21320047Y-29640861D01*
X21320045Y-29640858D01*
X21159141Y-29479954D01*
X20972734Y-29349432D01*
X20972728Y-29349429D01*
X20914725Y-29322382D01*
X20862285Y-29276210D01*
X20843133Y-29209017D01*
X20863348Y-29142135D01*
X20914725Y-29097618D01*
X20972734Y-29070568D01*
X21159139Y-28940047D01*
X21320047Y-28779139D01*
X21450568Y-28592734D01*
X21546739Y-28386496D01*
X21605635Y-28166692D01*
X21625468Y-27940000D01*
X21605635Y-27713308D01*
X21546739Y-27493504D01*
X21450568Y-27287266D01*
X21320047Y-27100861D01*
X21320045Y-27100858D01*
X21159141Y-26939954D01*
X20972734Y-26809432D01*
X20972728Y-26809429D01*
X20914725Y-26782382D01*
X20862285Y-26736210D01*
X20843133Y-26669017D01*
X20863348Y-26602135D01*
X20914725Y-26557618D01*
X20915317Y-26557342D01*
X20972734Y-26530568D01*
X21159139Y-26400047D01*
X21320047Y-26239139D01*
X21450568Y-26052734D01*
X21546739Y-25846496D01*
X21605635Y-25626692D01*
X21625468Y-25400000D01*
X21605635Y-25173308D01*
X21546739Y-24953504D01*
X21450568Y-24747266D01*
X21320047Y-24560861D01*
X21320045Y-24560858D01*
X21159141Y-24399954D01*
X20972734Y-24269432D01*
X20972728Y-24269429D01*
X20914725Y-24242382D01*
X20862285Y-24196210D01*
X20843133Y-24129017D01*
X20863348Y-24062135D01*
X20914725Y-24017618D01*
X20915319Y-24017341D01*
X20972734Y-23990568D01*
X21159139Y-23860047D01*
X21320047Y-23699139D01*
X21450568Y-23512734D01*
X21546739Y-23306496D01*
X21605635Y-23086692D01*
X21625468Y-22860000D01*
X21605635Y-22633308D01*
X21546739Y-22413504D01*
X21450568Y-22207266D01*
X21320047Y-22020861D01*
X21320045Y-22020858D01*
X21159141Y-21859954D01*
X20972734Y-21729432D01*
X20972728Y-21729429D01*
X20914725Y-21702382D01*
X20862285Y-21656210D01*
X20843133Y-21589017D01*
X20863348Y-21522135D01*
X20914725Y-21477618D01*
X20972734Y-21450568D01*
X21159139Y-21320047D01*
X21320047Y-21159139D01*
X21450568Y-20972734D01*
X21546739Y-20766496D01*
X21605635Y-20546692D01*
X21625468Y-20320000D01*
X21605635Y-20093308D01*
X21546739Y-19873504D01*
X21450568Y-19667266D01*
X21320047Y-19480861D01*
X21320045Y-19480858D01*
X21159141Y-19319954D01*
X20972734Y-19189432D01*
X20972728Y-19189429D01*
X20914725Y-19162382D01*
X20862285Y-19116210D01*
X20843133Y-19049017D01*
X20863348Y-18982135D01*
X20914725Y-18937618D01*
X20972734Y-18910568D01*
X21159139Y-18780047D01*
X21320047Y-18619139D01*
X21450568Y-18432734D01*
X21546739Y-18226496D01*
X21605635Y-18006692D01*
X21625468Y-17780000D01*
X21605635Y-17553308D01*
X21546739Y-17333504D01*
X21450568Y-17127266D01*
X21320047Y-16940861D01*
X21320045Y-16940858D01*
X21159143Y-16779956D01*
X21134536Y-16762726D01*
X21090912Y-16708149D01*
X21083719Y-16638650D01*
X21115241Y-16576296D01*
X21175471Y-16540882D01*
X21192404Y-16537861D01*
X21227483Y-16534091D01*
X21362331Y-16483796D01*
X21477546Y-16397546D01*
X21563796Y-16282331D01*
X21614091Y-16147483D01*
X21620500Y-16087873D01*
X21620499Y-14392128D01*
X21614091Y-14332517D01*
X21579567Y-14239954D01*
X21563797Y-14197671D01*
X21563793Y-14197664D01*
X21477547Y-14082455D01*
X21477544Y-14082452D01*
X21362335Y-13996206D01*
X21362328Y-13996202D01*
X21227482Y-13945908D01*
X21227483Y-13945908D01*
X21167883Y-13939501D01*
X21167881Y-13939500D01*
X21167873Y-13939500D01*
X21167864Y-13939500D01*
X19472129Y-13939500D01*
X19472123Y-13939501D01*
X19412516Y-13945908D01*
X19277671Y-13996202D01*
X19277664Y-13996206D01*
X19162455Y-14082452D01*
X19162452Y-14082455D01*
X19076206Y-14197664D01*
X19076202Y-14197671D01*
X19025908Y-14332517D01*
X19019501Y-14392116D01*
X19019501Y-14392123D01*
X19019500Y-14392135D01*
X19019500Y-16087870D01*
X19019501Y-16087876D01*
X19025908Y-16147483D01*
X19076202Y-16282328D01*
X19076206Y-16282335D01*
X19162452Y-16397544D01*
X19162455Y-16397547D01*
X19277664Y-16483793D01*
X19277671Y-16483797D01*
X19322618Y-16500561D01*
X19412517Y-16534091D01*
X19447596Y-16537862D01*
X19512144Y-16564599D01*
X19551993Y-16621991D01*
X19554488Y-16691816D01*
X19518836Y-16751905D01*
X19505464Y-16762725D01*
X19480858Y-16779954D01*
X19319954Y-16940858D01*
X19189432Y-17127265D01*
X19189431Y-17127267D01*
X19093261Y-17333502D01*
X19093258Y-17333511D01*
X19034366Y-17553302D01*
X19034364Y-17553313D01*
X19014532Y-17779998D01*
X19014532Y-17780001D01*
X19034364Y-18006686D01*
X19034366Y-18006697D01*
X19093258Y-18226488D01*
X19093261Y-18226497D01*
X19189431Y-18432732D01*
X19189432Y-18432734D01*
X19319954Y-18619141D01*
X19480858Y-18780045D01*
X19480861Y-18780047D01*
X19667266Y-18910568D01*
X19725275Y-18937618D01*
X19777714Y-18983791D01*
X19796866Y-19050984D01*
X19776650Y-19117865D01*
X19725275Y-19162382D01*
X19667267Y-19189431D01*
X19667265Y-19189432D01*
X19480858Y-19319954D01*
X19319954Y-19480858D01*
X19189432Y-19667265D01*
X19189431Y-19667267D01*
X19093261Y-19873502D01*
X19093258Y-19873511D01*
X19034366Y-20093302D01*
X19034364Y-20093313D01*
X19014532Y-20319998D01*
X19014532Y-20320001D01*
X19034364Y-20546686D01*
X19034366Y-20546697D01*
X19093258Y-20766488D01*
X19093261Y-20766497D01*
X19189431Y-20972732D01*
X19189432Y-20972734D01*
X19319954Y-21159141D01*
X19480858Y-21320045D01*
X19480861Y-21320047D01*
X19667266Y-21450568D01*
X19725275Y-21477618D01*
X19777714Y-21523791D01*
X19796866Y-21590984D01*
X19776650Y-21657865D01*
X19725275Y-21702382D01*
X19667267Y-21729431D01*
X19667265Y-21729432D01*
X19480858Y-21859954D01*
X19319954Y-22020858D01*
X19189432Y-22207265D01*
X19189431Y-22207267D01*
X19093261Y-22413502D01*
X19093258Y-22413511D01*
X19034366Y-22633302D01*
X19034364Y-22633313D01*
X19014532Y-22859998D01*
X19014532Y-22860001D01*
X19034364Y-23086686D01*
X19034366Y-23086697D01*
X19093258Y-23306488D01*
X19093261Y-23306497D01*
X19189431Y-23512732D01*
X19189432Y-23512734D01*
X19319954Y-23699141D01*
X19480858Y-23860045D01*
X19480861Y-23860047D01*
X19667266Y-23990568D01*
X19724681Y-24017341D01*
X19725275Y-24017618D01*
X19777714Y-24063791D01*
X19796866Y-24130984D01*
X19776650Y-24197865D01*
X19725275Y-24242382D01*
X19667267Y-24269431D01*
X19667265Y-24269432D01*
X19480858Y-24399954D01*
X19319954Y-24560858D01*
X19189432Y-24747265D01*
X19189431Y-24747267D01*
X19093261Y-24953502D01*
X19093258Y-24953511D01*
X19034366Y-25173302D01*
X19034364Y-25173313D01*
X19014532Y-25399998D01*
X19014532Y-25400001D01*
X19034364Y-25626686D01*
X19034366Y-25626697D01*
X19093258Y-25846488D01*
X19093261Y-25846497D01*
X19189431Y-26052732D01*
X19189432Y-26052734D01*
X19319954Y-26239141D01*
X19480858Y-26400045D01*
X19480861Y-26400047D01*
X19667266Y-26530568D01*
X19724683Y-26557342D01*
X19725275Y-26557618D01*
X19777714Y-26603791D01*
X19796866Y-26670984D01*
X19776650Y-26737865D01*
X19725275Y-26782382D01*
X19667267Y-26809431D01*
X19667265Y-26809432D01*
X19480858Y-26939954D01*
X19319954Y-27100858D01*
X19189432Y-27287265D01*
X19189431Y-27287267D01*
X19093261Y-27493502D01*
X19093258Y-27493511D01*
X19034366Y-27713302D01*
X19034364Y-27713313D01*
X19014532Y-27939998D01*
X19014532Y-27940001D01*
X19034364Y-28166686D01*
X19034366Y-28166697D01*
X19093258Y-28386488D01*
X19093261Y-28386497D01*
X19189431Y-28592732D01*
X19189432Y-28592734D01*
X19319954Y-28779141D01*
X19480858Y-28940045D01*
X19480861Y-28940047D01*
X19667266Y-29070568D01*
X19725275Y-29097618D01*
X19777714Y-29143791D01*
X19796866Y-29210984D01*
X19776650Y-29277865D01*
X19725275Y-29322382D01*
X19667267Y-29349431D01*
X19667265Y-29349432D01*
X19480858Y-29479954D01*
X19319954Y-29640858D01*
X19189432Y-29827265D01*
X19189431Y-29827267D01*
X19093261Y-30033502D01*
X19093258Y-30033511D01*
X19034366Y-30253302D01*
X19034364Y-30253313D01*
X19014532Y-30479998D01*
X19014532Y-30480001D01*
X12700500Y-30480001D01*
X12700500Y-15307763D01*
X13385787Y-15307763D01*
X13415413Y-15577013D01*
X13415415Y-15577024D01*
X13483926Y-15839082D01*
X13483928Y-15839088D01*
X13589870Y-16088390D01*
X13698491Y-16266372D01*
X13730979Y-16319605D01*
X13730986Y-16319615D01*
X13904253Y-16527819D01*
X13904259Y-16527824D01*
X13971164Y-16587771D01*
X14105998Y-16708582D01*
X14331910Y-16858044D01*
X14577176Y-16973020D01*
X14577183Y-16973022D01*
X14577185Y-16973023D01*
X14836557Y-17051057D01*
X14836564Y-17051058D01*
X14836569Y-17051060D01*
X15104561Y-17090500D01*
X15104566Y-17090500D01*
X15307636Y-17090500D01*
X15359133Y-17086730D01*
X15510156Y-17075677D01*
X15622758Y-17050593D01*
X15774546Y-17016782D01*
X15774548Y-17016781D01*
X15774553Y-17016780D01*
X16027558Y-16920014D01*
X16263777Y-16787441D01*
X16478177Y-16621888D01*
X16666186Y-16426881D01*
X16823799Y-16206579D01*
X16920401Y-16018687D01*
X16947649Y-15965690D01*
X16947651Y-15965684D01*
X16947656Y-15965675D01*
X17035118Y-15709305D01*
X17084319Y-15442933D01*
X17094212Y-15172235D01*
X17064586Y-14902982D01*
X16996072Y-14640912D01*
X16890130Y-14391610D01*
X16749018Y-14160390D01*
X16706610Y-14109431D01*
X16575746Y-13952180D01*
X16575740Y-13952175D01*
X16374002Y-13771418D01*
X16148092Y-13621957D01*
X16148090Y-13621956D01*
X15902824Y-13506980D01*
X15902819Y-13506978D01*
X15902814Y-13506976D01*
X15643442Y-13428942D01*
X15643428Y-13428939D01*
X15527791Y-13411921D01*
X15375439Y-13389500D01*
X15172369Y-13389500D01*
X15172364Y-13389500D01*
X14969844Y-13404323D01*
X14969831Y-13404325D01*
X14705453Y-13463217D01*
X14705446Y-13463220D01*
X14452439Y-13559987D01*
X14216226Y-13692557D01*
X14001822Y-13858112D01*
X13813822Y-14053109D01*
X13813816Y-14053116D01*
X13656202Y-14273419D01*
X13656199Y-14273424D01*
X13532350Y-14514309D01*
X13532343Y-14514327D01*
X13444884Y-14770685D01*
X13444881Y-14770699D01*
X13420449Y-14902975D01*
X13400070Y-15013308D01*
X13395681Y-15037068D01*
X13395680Y-15037075D01*
X13385787Y-15307763D01*
X12700500Y-15307763D01*
X12700500Y-12824500D01*
X12720185Y-12757461D01*
X12772989Y-12711706D01*
X12824500Y-12700500D01*
X58295500Y-12700500D01*
X58362539Y-12720185D01*
G37*
%TD.AperFunction*%
%TD*%
M02*
